<svg xmlns="http://www.w3.org/2000/svg" xmlns:xlink="http://www.w3.org/1999/xlink" xmlns:lucid="lucid" width="2300" height="1480"><g transform="translate(-80 100)" lucid:page-tab-id="cyHU_sVc4Z2G"><path d="M0-1258.84h3677.73v3840.5H0z" fill="#fff"/><path d="M100-74a6 6 0 0 1 6-6h238a6 6 0 0 1 6 6v8a14.48 14.48 0 0 1-4.24 10.24l-1.52 1.52A14.48 14.48 0 0 1 334-50H106a6 6 0 0 1-6-6z" fill="#fff"/><path d="M350-80v20l-10 10H100" stroke="#3a414a" stroke-width="3" fill="none"/><path d="M100-74a6 6 0 0 1 6-6h2248a6 6 0 0 1 6 6v1428a6 6 0 0 1-6 6H106a6 6 0 0 1-6-6z" stroke="#3a414a" stroke-width="3" fill="none"/><use xlink:href="#a" transform="matrix(1,0,0,1,108,-80) translate(0 19.444444444444443)"/><use xlink:href="#b" transform="matrix(1,0,0,1,108,-80) translate(29.62962962962963 19.444444444444443)"/><use xlink:href="#c" transform="matrix(1,0,0,1,108,-80) translate(128.33333333333331 19.444444444444443)"/><path d="M330 90c0 5.52-4.48 10-10 10s-10-4.48-10-10 4.48-10 10-10 10 4.48 10 10z" stroke="#3a414a" stroke-width="3" fill="#fff"/><path d="M320 100v32.8a24.96 24.96 0 0 0 2.73 11.34L340 178m-20-39.2L300 178m0-68h40" stroke="#3a414a" stroke-width="3" fill="none"/><path d="M300 86a6 6 0 0 1 6-6h28a6 6 0 0 1 6 6v108a6 6 0 0 1-6 6h-28a6 6 0 0 1-6-6z" fill="none"/><use xlink:href="#d" transform="matrix(1,0,0,1,220,178) translate(56.23456790123456 17.77777777777778)"/><path d="M320 143.1v10.05m0 10.06v20.1m0 10.06v20.1m0 10.06v20.1m0 10.06v20.1m0 10.06v20.1m0 10.06v20.1m0 10.06v20.1m0 10.06v20.1m0 10.06v20.1m0 10.06v20.1m0 10.06v20.1m0 10.06v20.1m0 10.06v20.1m0 10.06v20.1m0 10.06v20.1m0 10.06v20.1m0 10.06v20.1m0 10.06v20.1m0 10.06v20.1m0 10.06v20.1m0 10.05v20.1m0 10.05v20.1m0 10.06v20.12m0 10.05v20.1m0 10.06v20.1m0 10.06v20.1m0 10.05v20.1m0 10.06v20.12m0 10.05v20.1m0 10.06v20.1m0 10.06v20.1m0 10.05v20.1m0 10.06v20.1m0 10.07v20.1m0 10.06v20.1m0 10.06v20.1m0 10.05V1259M320 1258.97v1.03" stroke="#3a414a" stroke-width="2" fill="none"/><path d="M300 286a6 6 0 0 1 6-6h28a6 6 0 0 1 6 6v648a6 6 0 0 1-6 6h-28a6 6 0 0 1-6-6zM740 106a6 6 0 0 1 6-6h148a6 6 0 0 1 6 6v108a6 6 0 0 1-6 6H746a6 6 0 0 1-6-6z" stroke="#3a414a" stroke-width="3" fill="#fff"/><use xlink:href="#e" transform="matrix(1,0,0,1,752,112) translate(3.8333333333333286 53.77777777777778)"/><path d="M820 222.5v9.87m0 9.87V262m0 9.86v19.74m0 9.87v19.74m0 9.9v19.73m0 9.87v19.74m0 9.87v19.76m0 9.87v19.74m0 9.87v19.75m0 9.86v19.74m0 9.87v19.74m0 9.9v19.73m0 9.87v19.74m0 9.87v19.76m0 9.87v19.74m0 9.87v19.75m0 9.86v19.74m0 9.87v19.74m0 9.9v19.73m0 9.87v19.74m0 9.87v19.76m0 9.87v19.74m0 9.87v19.75m0 9.86v19.74m0 9.87v19.74m0 9.9v19.73m0 9.87v19.74m0 9.87v19.76m0 9.87v19.74m0 9.87v19.75m0 9.86v19.74m0 9.87v19.74m0 9.9v19.73m0 9.87v19.74m0 9.87v19.76m0 9.87v9.87" stroke="#3a414a" stroke-width="2" fill="none"/><path d="M821 222.53h-2v-1.03h2z" stroke="#3a414a" stroke-width=".05" fill="#3a414a"/><path d="M820 1258.97v1.03" stroke="#3a414a" stroke-width="2" fill="none"/><path d="M800 306a6 6 0 0 1 6-6h28a6 6 0 0 1 6 6v908a6 6 0 0 1-6 6h-28a6 6 0 0 1-6-6z" stroke="#3a414a" stroke-width="3" fill="#fff"/><path d="M343 360h434.88" stroke="#3a414a" stroke-width="3" fill="none"/><path d="M343.04 361.5h-1.54v-3h1.54z" stroke="#3a414a" stroke-width=".05" fill="#3a414a"/><path d="M793.64 360l-14.26 4.63v-9.26z" stroke="#3a414a" stroke-width="3" fill="#3a414a"/><use xlink:href="#f" transform="matrix(1,0,0,1,457.1602865247455,334.6666363394285) translate(0 14.222222222222223)"/><use xlink:href="#g" transform="matrix(1,0,0,1,457.1602865247455,334.6666363394285) translate(47.35802469135803 14.222222222222223)"/><use xlink:href="#h" transform="matrix(1,0,0,1,457.1602865247455,334.6666363394285) translate(104.59259259259261 14.222222222222223)"/><use xlink:href="#i" transform="matrix(1,0,0,1,457.1602865247455,334.6666363394285) translate(170.66666666666669 14.222222222222223)"/><path d="M1080 406a6 6 0 0 1 6-6h148a6 6 0 0 1 6 6v108a6 6 0 0 1-6 6h-148a6 6 0 0 1-6-6z" stroke="#3a414a" stroke-width="3" fill="#fff"/><use xlink:href="#j" transform="matrix(1,0,0,1,1092,412) translate(-4.746913580246911 52.44444444444444)"/><path d="M842.5 469.33h9.8m9.78 0h19.6m9.78 0h19.58m9.8 0h19.58m9.8 0h19.5m9.73 0h19.44m9.72 0h19.44m9.73 0h19.43m9.73 0h9.72" stroke="#3a414a" stroke-width="2" fill="none"/><path d="M842.53 470.33h-1.03v-2h1.03z" stroke="#3a414a" stroke-width=".05" fill="#3a414a"/><path d="M1059.32 479.5l17.22-10.17-17.22-10.18" stroke="#3a414a" stroke-width="2" fill="none"/><use xlink:href="#k" transform="matrix(1,0,0,1,923.5553075704715,444.000032068517) translate(0 14.222222222222223)"/><path d="M1160 522.5v10.1m0 10.07v20.18m0 10.08v20.18m0 10.1v20.17m0 10.08v20.18m0 10.08v20.2m0 10.07v20.18m0 10.08v20.18m0 10.1v20.17m0 10.08v20.18m0 10.08v20.2m0 10.07v20.18m0 10.08v20.18m0 10.1v20.17m0 10.08v20.18m0 10.08v20.2m0 10.07v20.18m0 10.08V1047m0 10.1v20.17m0 10.08v20.18m0 10.08v20.2m0 10.07v20.18m0 10.08v20.18m0 10.1v20.17m0 10.08v20.18m0 10.08v10.1" stroke="#3a414a" stroke-width="2" fill="none"/><path d="M1161 522.53h-2v-1.03h2z" stroke="#3a414a" stroke-width=".05" fill="#3a414a"/><path d="M1160 1278.97v1.03" stroke="#3a414a" stroke-width="2" fill="none"/><path d="M1140 606a6 6 0 0 1 6-6h28a6 6 0 0 1 6 6v428a6 6 0 0 1-6 6h-28a6 6 0 0 1-6-6z" stroke="#3a414a" stroke-width="3" fill="#fff"/><path d="M843 692h274.88" stroke="#3a414a" stroke-width="3" fill="none"/><path d="M843.04 693.5h-1.54v-3h1.54z" stroke="#3a414a" stroke-width=".05" fill="#3a414a"/><path d="M1133.64 692l-14.26 4.63v-9.26z" stroke="#3a414a" stroke-width="3" fill="#3a414a"/><use xlink:href="#l" transform="matrix(1,0,0,1,896.7494096713453,667.5200118726125) translate(0 13.653333333333336)"/><path d="M1500 46a6 6 0 0 1 6-6h248a6 6 0 0 1 6 6v108a6 6 0 0 1-6 6h-248a6 6 0 0 1-6-6z" stroke="#3a414a" stroke-width="3" fill="#fff"/><path d="M1526 40v120m208-120v120" stroke="#3a414a" stroke-width="3" fill="none"/><use xlink:href="#m" transform="matrix(1,0,0,1,1537.5,45) translate(6.265432098765459 59.44444444444444)"/><path d="M1630 162.5v9.88m0 9.88V202m0 9.9v19.75m0 9.88v19.75m0 9.88v19.76m0 9.88v19.75m0 9.88v19.76m0 9.87v19.75m0 9.88v19.76m0 9.88v19.76m0 9.87v19.76m0 9.88v19.76m0 9.88V528m0 9.88v19.75m0 9.88v19.77m0 9.88v19.75m0 9.88v19.76m0 9.88v19.76m0 9.87v19.76m0 9.9v19.75m0 9.87v19.76m0 9.88v19.76m0 9.88v19.75m0 9.88V854m0 9.87v19.75m0 9.88v19.76m0 9.88v19.75m0 9.87v19.76m0 9.88v19.76m0 9.88v19.76m0 9.88v19.75m0 9.88v19.77m0 9.88v19.75m0 9.88v19.76m0 9.88v19.75m0 9.88v19.76m0 9.9v19.74m0 9.88v9.88" stroke="#3a414a" stroke-width="2" fill="none"/><path d="M1631 162.53h-2v-1.03h2z" stroke="#3a414a" stroke-width=".05" fill="#3a414a"/><path d="M1630 1258.97v1.03" stroke="#3a414a" stroke-width="2" fill="none"/><path d="M1610 586a6 6 0 0 1 6-6h28a6 6 0 0 1 6 6v448a6 6 0 0 1-6 6h-28a6 6 0 0 1-6-6z" stroke="#3a414a" stroke-width="3" fill="#fff"/><path d="M1182 742.67h410.12" stroke="#3a414a" fill="none"/><path d="M1182 743.17h-.5v-1h.5z" stroke="#3a414a" stroke-width=".05" fill="#3a414a"/><path d="M1606.88 742.67l-14.27 4.63.02-9.27z" stroke="#3a414a" fill="#3a414a"/><use xlink:href="#n" transform="matrix(1,0,0,1,1310.2355390064072,718.1866688084275) translate(0 13.653333333333336)"/><path d="M2040 26a6 6 0 0 1 6-6h268a6 6 0 0 1 6 6v108a6 6 0 0 1-6 6h-268a6 6 0 0 1-6-6z" stroke="#3a414a" stroke-width="3" fill="#fff"/><path d="M2068 20v120m224-120v120" stroke="#3a414a" stroke-width="3" fill="none"/><use xlink:href="#o" transform="matrix(1,0,0,1,2080,25) translate(6.234567901234584 59.44444444444444)"/><path d="M2180 142.5v9.97m0 9.97v19.93m0 9.97v19.93m0 9.97v19.94m0 9.96v19.94m0 9.97v19.93m0 9.97v19.93m0 9.97v19.94m0 9.95v19.94m0 9.96v19.93m0 9.96v19.94m0 9.96v19.94m0 9.97v19.93m0 9.97v19.93m0 9.97v19.94m0 9.97V601m0 9.98v19.93m0 9.98v19.94m0 9.96v19.94m0 9.96v19.94m0 9.97v19.92m0 9.97v19.93m0 9.96v19.93m0 9.97v19.93m0 9.97v19.93m0 9.97v19.94m0 9.97v19.94m0 9.97v19.94m0 9.97v19.95m0 9.96v19.95m0 9.97v19.93m0 9.97v19.93m0 9.97v19.94m0 9.96v19.94m0 9.97v19.93m0 9.97v19.93m0 9.97v9.97" stroke="#3a414a" stroke-width="2" fill="none"/><path d="M2181 142.53h-2v-1.03h2z" stroke="#3a414a" stroke-width=".05" fill="#3a414a"/><path d="M2180 1218.97v1.03" stroke="#3a414a" stroke-width="2" fill="none"/><path d="M2160 536a6 6 0 0 1 6-6h28a6 6 0 0 1 6 6v458a6 6 0 0 1-6 6h-28a6 6 0 0 1-6-6z" stroke="#3a414a" stroke-width="3" fill="#fff"/><path d="M1652 810h505.6" stroke="#3a414a" fill="none"/><path d="M1652 810.5h-.5v-1h.5z" stroke="#3a414a" stroke-width=".05" fill="#3a414a"/><path d="M2140.3 820.18l17.22-10.18-17.22-10.18" stroke="#3a414a" fill="none"/><use xlink:href="#p" transform="matrix(1,0,0,1,1820.331362937355,784.6666666666666) translate(0 14.222222222222223)"/><path d="M2157.5 852h-10.52m-10.52 0h-21.04m-10.52 0h-21.05m-10.52 0h-21.04m-10.53 0h-21.04m-10.52 0h-21.03m-10.52 0h-21.05m-10.52 0h-21.04m-10.52 0h-20.32m-9.78 0h-19.6m-9.78 0h-19.58m-9.8 0h-19.58m-9.8 0h-19.57m-9.78 0h-19.6m-9.78 0h-19.58m-9.8 0h-19.57m-9.8 0h-9.8" stroke="#3a414a" stroke-width="2" fill="none"/><path d="M2158.5 853h-1.03v-2h1.03z" stroke="#3a414a" stroke-width=".05" fill="#3a414a"/><path d="M1654.74 852l14.26-4.63v9.26z" stroke="#3a414a" stroke-width="2" fill="#3a414a"/><use xlink:href="#q" transform="matrix(1,0,0,1,1788.811372210008,856.0000000363752) translate(0 14.222222222222223)"/><use xlink:href="#r" transform="matrix(1,0,0,1,1788.811372210008,856.0000000363752) translate(30.567901234567906 14.222222222222223)"/><use xlink:href="#s" transform="matrix(1,0,0,1,1788.811372210008,856.0000000363752) translate(45.87654320987655 14.222222222222223)"/><path d="M1607.5 956h-10.12m-10.12 0h-20.24m-10.12 0h-20.23m-10.12 0h-20.24m-10.1 0h-20.25m-10.12 0h-20.23m-10.12 0h-20.24m-10.12 0h-20.95m-10.84 0h-21.66m-10.84 0h-21.66m-10.84 0h-21.66m-10.84 0h-21.66m-10.83 0h-21.67m-10.83 0H1200" stroke="#3a414a" stroke-width="2" fill="none"/><path d="M1608.5 957h-1.03v-2h1.03z" stroke="#3a414a" stroke-width=".05" fill="#3a414a"/><path d="M1184.74 956l14.26-4.63v9.26z" stroke="#3a414a" stroke-width="2" fill="#3a414a"/><use xlink:href="#t" transform="matrix(1,0,0,1,1264.0844766269377,959.9999998883748) translate(0 13.653333333333336)"/><use xlink:href="#u" transform="matrix(1,0,0,1,1264.0844766269377,959.9999998883748) translate(77.60592592592594 13.653333333333336)"/><use xlink:href="#v" transform="matrix(1,0,0,1,1264.0844766269377,959.9999998883748) translate(92.30222222222224 13.653333333333336)"/><path d="M1138 981.33H857.88" stroke="#3a414a" fill="none"/><path d="M1138.5 981.83h-.5v-1h.5z" stroke="#3a414a" stroke-width=".05" fill="#3a414a"/><path d="M843.12 981.33l14.26-4.63v9.27z" stroke="#3a414a" fill="#3a414a"/><use xlink:href="#w" transform="matrix(1,0,0,1,949.580274123154,985.3333325807208) translate(0 14.222222222222223)"/><path d="M820 1086a6 6 0 0 1 6-6h28a6 6 0 0 1 6 6v68a6 6 0 0 1-6 6h-28a6 6 0 0 1-6-6z" stroke="#3a414a" stroke-width="3" fill="#fff"/><path d="M840 1077v-1a6 6 0 0 1 6-6h49.5a6 6 0 0 1 6 6v46a6 6 0 0 1-6 6h-13.38" stroke="#3a414a" stroke-width="3" fill="none"/><path d="M841.5 1078.5h-3v-1.54h3z" stroke="#3a414a" stroke-width=".05" fill="#3a414a"/><path d="M866.35 1128l14.27-4.63v9.27z" stroke="#3a414a" stroke-width="3" fill="#3a414a"/><g><use xlink:href="#x" transform="matrix(1,0,0,1,853.271592238051,1044.872185459938) translate(0 14.222222222222223)"/></g><path d="M862.5 1145.33h11m11 0h11l.94.08.9.23.88.36.8.48.72.6.6.73.5.8.37.88.23.9.07.95v8.23m0 8.22v16.44m0 8.22v8.23l-.07.93-.22.92-.35.87-.5.8-.6.7-.72.62-.8.5-.88.35-.9.22-.95.07h-11.83m-11.83 0H860" stroke="#3a414a" stroke-width="2" fill="none"/><path d="M862.53 1146.33h-1.03v-2h1.03z" stroke="#3a414a" stroke-width=".05" fill="#3a414a"/><path d="M844.74 1206.67l14.26-4.64v9.27z" stroke="#3a414a" stroke-width="2" fill="#3a414a"/><defs><path fill="#3a414a" d="M135-143c-3-34-86-38-87 0 15 53 115 12 119 90S17 21 10-45l28-5c4 36 97 45 98 0-10-56-113-15-118-90-4-57 82-63 122-42 12 7 21 19 24 35" id="y"/><path fill="#3a414a" d="M85-194c31 0 48 13 60 33l-1-100h32l1 261h-30c-2-10 0-23-3-31C134-8 116 4 85 4 32 4 16-35 15-94c0-66 23-100 70-100zm9 24c-40 0-46 34-46 75 0 40 6 74 45 74 42 0 51-32 51-76 0-42-9-74-50-73" id="z"/><g id="a"><use transform="matrix(0.06172839506172839,0,0,0.06172839506172839,0,0)" xlink:href="#y"/><use transform="matrix(0.06172839506172839,0,0,0.06172839506172839,11.11111111111111,0)" xlink:href="#z"/></g><path fill="#3a414a" d="M143 4C61 4 22-44 18-125c-5-107 100-154 193-111 17 8 29 25 37 43l-32 9c-13-25-37-40-76-40-61 0-88 39-88 99 0 61 29 100 91 101 35 0 62-11 79-27v-45h-74v-28h105v86C228-13 192 4 143 4" id="A"/><path fill="#3a414a" d="M100-194c63 0 86 42 84 106H49c0 40 14 67 53 68 26 1 43-12 49-29l28 8c-11 28-37 45-77 45C44 4 14-33 15-96c1-61 26-98 85-98zm52 81c6-60-76-77-97-28-3 7-6 17-6 28h103" id="B"/><path fill="#3a414a" d="M117-194c89-4 53 116 60 194h-32v-121c0-31-8-49-39-48C34-167 62-67 57 0H25l-1-190h30c1 10-1 24 2 32 11-22 29-35 61-36" id="C"/><path fill="#3a414a" d="M114-163C36-179 61-72 57 0H25l-1-190h30c1 12-1 29 2 39 6-27 23-49 58-41v29" id="D"/><path fill="#3a414a" d="M141-36C126-15 110 5 73 4 37 3 15-17 15-53c-1-64 63-63 125-63 3-35-9-54-41-54-24 1-41 7-42 31l-33-3c5-37 33-52 76-52 45 0 72 20 72 64v82c-1 20 7 32 28 27v20c-31 9-61-2-59-35zM48-53c0 20 12 33 32 33 41-3 63-29 60-74-43 2-92-5-92 41" id="E"/><path fill="#3a414a" d="M59-47c-2 24 18 29 38 22v24C64 9 27 4 27-40v-127H5v-23h24l9-43h21v43h35v23H59v120" id="F"/><g id="b"><use transform="matrix(0.06172839506172839,0,0,0.06172839506172839,0,0)" xlink:href="#A"/><use transform="matrix(0.06172839506172839,0,0,0.06172839506172839,17.28395061728395,0)" xlink:href="#B"/><use transform="matrix(0.06172839506172839,0,0,0.06172839506172839,29.629629629629626,0)" xlink:href="#C"/><use transform="matrix(0.06172839506172839,0,0,0.06172839506172839,41.9753086419753,0)" xlink:href="#B"/><use transform="matrix(0.06172839506172839,0,0,0.06172839506172839,54.32098765432098,0)" xlink:href="#D"/><use transform="matrix(0.06172839506172839,0,0,0.06172839506172839,61.66666666666666,0)" xlink:href="#E"/><use transform="matrix(0.06172839506172839,0,0,0.06172839506172839,74.01234567901234,0)" xlink:href="#F"/><use transform="matrix(0.06172839506172839,0,0,0.06172839506172839,80.18518518518518,0)" xlink:href="#B"/></g><path fill="#3a414a" d="M24-231v-30h32v30H24zM24 0v-190h32V0H24" id="G"/><path fill="#3a414a" d="M108 0H70L1-190h34L89-25l56-165h34" id="H"/><path fill="#3a414a" d="M100-194c62-1 85 37 85 99 1 63-27 99-86 99S16-35 15-95c0-66 28-99 85-99zM99-20c44 1 53-31 53-75 0-43-8-75-51-75s-53 32-53 75 10 74 51 75" id="I"/><path fill="#3a414a" d="M96-169c-40 0-48 33-48 73s9 75 48 75c24 0 41-14 43-38l32 2c-6 37-31 61-74 61-59 0-76-41-82-99-10-93 101-131 147-64 4 7 5 14 7 22l-32 3c-4-21-16-35-41-35" id="J"/><g id="c"><use transform="matrix(0.06172839506172839,0,0,0.06172839506172839,0,0)" xlink:href="#G"/><use transform="matrix(0.06172839506172839,0,0,0.06172839506172839,4.876543209876543,0)" xlink:href="#C"/><use transform="matrix(0.06172839506172839,0,0,0.06172839506172839,17.22222222222222,0)" xlink:href="#H"/><use transform="matrix(0.06172839506172839,0,0,0.06172839506172839,28.333333333333332,0)" xlink:href="#I"/><use transform="matrix(0.06172839506172839,0,0,0.06172839506172839,40.67901234567901,0)" xlink:href="#G"/><use transform="matrix(0.06172839506172839,0,0,0.06172839506172839,45.55555555555556,0)" xlink:href="#J"/><use transform="matrix(0.06172839506172839,0,0,0.06172839506172839,56.66666666666667,0)" xlink:href="#B"/></g><path fill="#3a414a" d="M240 0l2-218c-23 76-54 145-80 218h-23L58-218 59 0H30v-248h44l77 211c21-75 51-140 76-211h43V0h-30" id="K"/><path fill="#3a414a" d="M177-190C167-65 218 103 67 71c-23-6-38-20-44-43l32-5c15 47 100 32 89-28v-30C133-14 115 1 83 1 29 1 15-40 15-95c0-56 16-97 71-98 29-1 48 16 59 35 1-10 0-23 2-32h30zM94-22c36 0 50-32 50-73 0-42-14-75-50-75-39 0-46 34-46 75s6 73 46 73" id="L"/><g id="d"><use transform="matrix(0.06172839506172839,0,0,0.06172839506172839,0,0)" xlink:href="#K"/><use transform="matrix(0.06172839506172839,0,0,0.06172839506172839,18.456790123456788,0)" xlink:href="#E"/><use transform="matrix(0.06172839506172839,0,0,0.06172839506172839,30.80246913580247,0)" xlink:href="#C"/><use transform="matrix(0.06172839506172839,0,0,0.06172839506172839,43.148148148148145,0)" xlink:href="#E"/><use transform="matrix(0.06172839506172839,0,0,0.06172839506172839,55.49382716049382,0)" xlink:href="#L"/><use transform="matrix(0.06172839506172839,0,0,0.06172839506172839,67.8395061728395,0)" xlink:href="#B"/><use transform="matrix(0.06172839506172839,0,0,0.06172839506172839,80.18518518518519,0)" xlink:href="#D"/></g><path fill="#3a414a" d="M33-154v-36h34v36H33zM33 0v-36h34V0H33" id="M"/><path fill="#3a414a" d="M33 0v-248h34V0H33" id="N"/><path fill="#3a414a" d="M30-248c87 1 191-15 191 75 0 78-77 80-158 76V0H30v-248zm33 125c57 0 124 11 124-50 0-59-68-47-124-48v98" id="O"/><g id="e"><use transform="matrix(0.06172839506172839,0,0,0.06172839506172839,0,0)" xlink:href="#M"/><use transform="matrix(0.06172839506172839,0,0,0.06172839506172839,6.172839506172839,0)" xlink:href="#N"/><use transform="matrix(0.06172839506172839,0,0,0.06172839506172839,12.345679012345679,0)" xlink:href="#C"/><use transform="matrix(0.06172839506172839,0,0,0.06172839506172839,24.691358024691358,0)" xlink:href="#H"/><use transform="matrix(0.06172839506172839,0,0,0.06172839506172839,35.80246913580247,0)" xlink:href="#I"/><use transform="matrix(0.06172839506172839,0,0,0.06172839506172839,48.148148148148145,0)" xlink:href="#G"/><use transform="matrix(0.06172839506172839,0,0,0.06172839506172839,53.02469135802469,0)" xlink:href="#J"/><use transform="matrix(0.06172839506172839,0,0,0.06172839506172839,64.1358024691358,0)" xlink:href="#B"/><use transform="matrix(0.06172839506172839,0,0,0.06172839506172839,76.48148148148148,0)" xlink:href="#O"/><use transform="matrix(0.06172839506172839,0,0,0.06172839506172839,91.29629629629629,0)" xlink:href="#E"/><use transform="matrix(0.06172839506172839,0,0,0.06172839506172839,103.64197530864197,0)" xlink:href="#L"/><use transform="matrix(0.06172839506172839,0,0,0.06172839506172839,115.98765432098766,0)" xlink:href="#B"/></g><path fill="#333" d="M67-125c0 53 21 87 73 88 37 1 54-22 65-47l45 17C233-25 199 4 140 4 58 4 20-42 15-125 8-235 124-281 211-232c18 10 29 29 36 50l-46 12c-8-25-30-41-62-41-52 0-71 34-72 86" id="P"/><path fill="#333" d="M25 0v-261h50V0H25" id="Q"/><path fill="#333" d="M25-224v-37h50v37H25zM25 0v-190h50V0H25" id="R"/><path fill="#333" d="M190-63c-7 42-38 67-86 67-59 0-84-38-90-98-12-110 154-137 174-36l-49 2c-2-19-15-32-35-32-30 0-35 28-38 64-6 74 65 87 74 30" id="S"/><path fill="#333" d="M147 0L96-86 75-71V0H25v-261h50v150l67-79h53l-66 74L201 0h-54" id="T"/><g id="f"><use transform="matrix(0.04938271604938272,0,0,0.04938271604938272,0,0)" xlink:href="#P"/><use transform="matrix(0.04938271604938272,0,0,0.04938271604938272,12.790123456790125,0)" xlink:href="#Q"/><use transform="matrix(0.04938271604938272,0,0,0.04938271604938272,17.7283950617284,0)" xlink:href="#R"/><use transform="matrix(0.04938271604938272,0,0,0.04938271604938272,22.66666666666667,0)" xlink:href="#S"/><use transform="matrix(0.04938271604938272,0,0,0.04938271604938272,32.543209876543216,0)" xlink:href="#T"/></g><path fill="#333" d="M135-150c-39-12-60 13-60 57V0H25l-1-190h47c2 13-1 29 3 40 6-28 27-53 61-41v41" id="U"/><path fill="#333" d="M185-48c-13 30-37 53-82 52C43 2 14-33 14-96s30-98 90-98c62 0 83 45 84 108H66c0 31 8 55 39 56 18 0 30-7 34-22zm-45-69c5-46-57-63-70-21-2 6-4 13-4 21h74" id="V"/><path fill="#333" d="M133-34C117-15 103 5 69 4 32 3 11-16 11-54c-1-60 55-63 116-61 1-26-3-47-28-47-18 1-26 9-28 27l-52-2c7-38 36-58 82-57s74 22 75 68l1 82c-1 14 12 18 25 15v27c-30 8-71 5-69-32zm-48 3c29 0 43-24 42-57-32 0-66-3-65 30 0 17 8 27 23 27" id="W"/><path fill="#333" d="M115-3C79 11 28 4 28-45v-112H4v-33h27l15-45h31v45h36v33H77v99c-1 23 16 31 38 25v30" id="X"/><g id="g"><use transform="matrix(0.04938271604938272,0,0,0.04938271604938272,0,0)" xlink:href="#S"/><use transform="matrix(0.04938271604938272,0,0,0.04938271604938272,9.876543209876544,0)" xlink:href="#U"/><use transform="matrix(0.04938271604938272,0,0,0.04938271604938272,16.790123456790127,0)" xlink:href="#V"/><use transform="matrix(0.04938271604938272,0,0,0.04938271604938272,26.666666666666668,0)" xlink:href="#W"/><use transform="matrix(0.04938271604938272,0,0,0.04938271604938272,36.543209876543216,0)" xlink:href="#X"/><use transform="matrix(0.04938271604938272,0,0,0.04938271604938272,42.41975308641976,0)" xlink:href="#V"/></g><path fill="#333" d="M135-194c87-1 58 113 63 194h-50c-7-57 23-157-34-157-59 0-34 97-39 157H25l-1-190h47c2 12-1 28 3 38 12-26 28-41 61-42" id="Y"/><path fill="#333" d="M128 0H69L1-190h53L99-40l48-150h52" id="Z"/><path fill="#333" d="M110-194c64 0 96 36 96 99 0 64-35 99-97 99-61 0-95-36-95-99 0-62 34-99 96-99zm-1 164c35 0 45-28 45-65 0-40-10-65-43-65-34 0-45 26-45 65 0 36 10 65 43 65" id="aa"/><g id="h"><use transform="matrix(0.04938271604938272,0,0,0.04938271604938272,0,0)" xlink:href="#R"/><use transform="matrix(0.04938271604938272,0,0,0.04938271604938272,4.938271604938272,0)" xlink:href="#Y"/><use transform="matrix(0.04938271604938272,0,0,0.04938271604938272,15.753086419753087,0)" xlink:href="#Z"/><use transform="matrix(0.04938271604938272,0,0,0.04938271604938272,25.629629629629633,0)" xlink:href="#aa"/><use transform="matrix(0.04938271604938272,0,0,0.04938271604938272,36.44444444444445,0)" xlink:href="#R"/><use transform="matrix(0.04938271604938272,0,0,0.04938271604938272,41.38271604938272,0)" xlink:href="#S"/><use transform="matrix(0.04938271604938272,0,0,0.04938271604938272,51.25925925925927,0)" xlink:href="#V"/></g><path fill="#333" d="M135-194c52 0 70 43 70 98 0 56-19 99-73 100-30 1-46-15-58-35L72 0H24l1-261h50v104c11-23 29-37 60-37zM114-30c31 0 40-27 40-66 0-37-7-63-39-63s-41 28-41 65c0 36 8 64 40 64" id="ab"/><path fill="#333" d="M85 4C-2 5 27-109 22-190h50c7 57-23 150 33 157 60-5 35-97 40-157h50l1 190h-47c-2-12 1-28-3-38-12 25-28 42-61 42" id="ac"/><g id="i"><use transform="matrix(0.04938271604938272,0,0,0.04938271604938272,0,0)" xlink:href="#ab"/><use transform="matrix(0.04938271604938272,0,0,0.04938271604938272,10.814814814814815,0)" xlink:href="#ac"/><use transform="matrix(0.04938271604938272,0,0,0.04938271604938272,21.62962962962963,0)" xlink:href="#X"/><use transform="matrix(0.04938271604938272,0,0,0.04938271604938272,27.506172839506174,0)" xlink:href="#X"/><use transform="matrix(0.04938271604938272,0,0,0.04938271604938272,33.382716049382715,0)" xlink:href="#aa"/><use transform="matrix(0.04938271604938272,0,0,0.04938271604938272,44.19753086419753,0)" xlink:href="#Y"/></g><g id="j"><use transform="matrix(0.06172839506172839,0,0,0.06172839506172839,0,0)" xlink:href="#G"/><use transform="matrix(0.06172839506172839,0,0,0.06172839506172839,4.876543209876543,0)" xlink:href="#C"/><use transform="matrix(0.06172839506172839,0,0,0.06172839506172839,17.22222222222222,0)" xlink:href="#H"/><use transform="matrix(0.06172839506172839,0,0,0.06172839506172839,28.333333333333332,0)" xlink:href="#I"/><use transform="matrix(0.06172839506172839,0,0,0.06172839506172839,40.67901234567901,0)" xlink:href="#G"/><use transform="matrix(0.06172839506172839,0,0,0.06172839506172839,45.55555555555556,0)" xlink:href="#J"/><use transform="matrix(0.06172839506172839,0,0,0.06172839506172839,56.66666666666667,0)" xlink:href="#B"/><use transform="matrix(0.06172839506172839,0,0,0.06172839506172839,69.01234567901236,0)" xlink:href="#M"/><use transform="matrix(0.06172839506172839,0,0,0.06172839506172839,75.18518518518519,0)" xlink:href="#N"/><use transform="matrix(0.06172839506172839,0,0,0.06172839506172839,81.35802469135803,0)" xlink:href="#C"/><use transform="matrix(0.06172839506172839,0,0,0.06172839506172839,93.70370370370371,0)" xlink:href="#H"/><use transform="matrix(0.06172839506172839,0,0,0.06172839506172839,104.81481481481482,0)" xlink:href="#I"/><use transform="matrix(0.06172839506172839,0,0,0.06172839506172839,117.16049382716051,0)" xlink:href="#G"/><use transform="matrix(0.06172839506172839,0,0,0.06172839506172839,122.03703703703705,0)" xlink:href="#J"/><use transform="matrix(0.06172839506172839,0,0,0.06172839506172839,133.14814814814815,0)" xlink:href="#B"/></g><path fill="#333" d="M24 0v-248h52V0H24" id="ad"/><path fill="#333" d="M67-93c0 74 22 123 53 168H70C40 30 18-18 18-93s22-123 52-168h50c-32 44-53 94-53 168" id="ae"/><path fill="#333" d="M102-93c0 74-22 123-52 168H0C30 29 54-18 53-93c0-74-22-123-53-168h50c30 45 52 94 52 168" id="af"/><g id="k"><use transform="matrix(0.04938271604938272,0,0,0.04938271604938272,0,0)" xlink:href="#ad"/><use transform="matrix(0.04938271604938272,0,0,0.04938271604938272,4.938271604938272,0)" xlink:href="#Y"/><use transform="matrix(0.04938271604938272,0,0,0.04938271604938272,15.753086419753087,0)" xlink:href="#Z"/><use transform="matrix(0.04938271604938272,0,0,0.04938271604938272,25.629629629629633,0)" xlink:href="#aa"/><use transform="matrix(0.04938271604938272,0,0,0.04938271604938272,36.44444444444445,0)" xlink:href="#R"/><use transform="matrix(0.04938271604938272,0,0,0.04938271604938272,41.38271604938272,0)" xlink:href="#S"/><use transform="matrix(0.04938271604938272,0,0,0.04938271604938272,51.25925925925927,0)" xlink:href="#V"/><use transform="matrix(0.04938271604938272,0,0,0.04938271604938272,61.13580246913581,0)" xlink:href="#ae"/><use transform="matrix(0.04938271604938272,0,0,0.04938271604938272,67.01234567901236,0)" xlink:href="#af"/></g><path d="M212-179c-10-28-35-45-73-45-59 0-87 40-87 99 0 60 29 101 89 101 43 0 62-24 78-52l27 14C228-24 195 4 139 4 59 4 22-46 18-125c-6-104 99-153 187-111 19 9 31 26 39 46" id="ag"/><path d="M114-163C36-179 61-72 57 0H25l-1-190h30c1 12-1 29 2 39 6-27 23-49 58-41v29" id="ah"/><path d="M100-194c63 0 86 42 84 106H49c0 40 14 67 53 68 26 1 43-12 49-29l28 8c-11 28-37 45-77 45C44 4 14-33 15-96c1-61 26-98 85-98zm52 81c6-60-76-77-97-28-3 7-6 17-6 28h103" id="ai"/><path d="M141-36C126-15 110 5 73 4 37 3 15-17 15-53c-1-64 63-63 125-63 3-35-9-54-41-54-24 1-41 7-42 31l-33-3c5-37 33-52 76-52 45 0 72 20 72 64v82c-1 20 7 32 28 27v20c-31 9-61-2-59-35zM48-53c0 20 12 33 32 33 41-3 63-29 60-74-43 2-92-5-92 41" id="aj"/><path d="M59-47c-2 24 18 29 38 22v24C64 9 27 4 27-40v-127H5v-23h24l9-43h21v43h35v23H59v120" id="ak"/><path d="M33 0v-248h34V0H33" id="al"/><path d="M117-194c89-4 53 116 60 194h-32v-121c0-31-8-49-39-48C34-167 62-67 57 0H25l-1-190h30c1 10-1 24 2 32 11-22 29-35 61-36" id="am"/><path d="M108 0H70L1-190h34L89-25l56-165h34" id="an"/><path d="M100-194c62-1 85 37 85 99 1 63-27 99-86 99S16-35 15-95c0-66 28-99 85-99zM99-20c44 1 53-31 53-75 0-43-8-75-51-75s-53 32-53 75 10 74 51 75" id="ao"/><path d="M24-231v-30h32v30H24zM24 0v-190h32V0H24" id="ap"/><path d="M96-169c-40 0-48 33-48 73s9 75 48 75c24 0 41-14 43-38l32 2c-6 37-31 61-74 61-59 0-76-41-82-99-10-93 101-131 147-64 4 7 5 14 7 22l-32 3c-4-21-16-35-41-35" id="aq"/><path d="M87 75C49 33 22-17 22-94c0-76 28-126 65-167h31c-38 41-64 92-64 168S80 34 118 75H87" id="ar"/><path d="M145-31C134-9 116 4 85 4 32 4 16-35 15-94c0-59 17-99 70-100 32-1 48 14 60 33 0-11-1-24 2-32h30l-1 268h-32zM93-21c41 0 51-33 51-76s-8-73-50-73c-40 0-46 35-46 75s5 74 45 74" id="as"/><path d="M84 4C-5 8 30-112 23-190h32v120c0 31 7 50 39 49 72-2 45-101 50-169h31l1 190h-30c-1-10 1-25-2-33-11 22-28 36-60 37" id="at"/><path d="M33-261c38 41 65 92 65 168S71 34 33 75H2C39 34 66-17 66-93S39-220 2-261h31" id="au"/><g id="l"><use transform="matrix(0.04740740740740742,0,0,0.04740740740740742,0,0)" xlink:href="#ag"/><use transform="matrix(0.04740740740740742,0,0,0.04740740740740742,12.278518518518522,0)" xlink:href="#ah"/><use transform="matrix(0.04740740740740742,0,0,0.04740740740740742,17.920000000000005,0)" xlink:href="#ai"/><use transform="matrix(0.04740740740740742,0,0,0.04740740740740742,27.40148148148149,0)" xlink:href="#aj"/><use transform="matrix(0.04740740740740742,0,0,0.04740740740740742,36.88296296296298,0)" xlink:href="#ak"/><use transform="matrix(0.04740740740740742,0,0,0.04740740740740742,41.62370370370372,0)" xlink:href="#ai"/><use transform="matrix(0.04740740740740742,0,0,0.04740740740740742,51.105185185185206,0)" xlink:href="#al"/><use transform="matrix(0.04740740740740742,0,0,0.04740740740740742,55.84592592592595,0)" xlink:href="#am"/><use transform="matrix(0.04740740740740742,0,0,0.04740740740740742,65.32740740740743,0)" xlink:href="#an"/><use transform="matrix(0.04740740740740742,0,0,0.04740740740740742,73.86074074074077,0)" xlink:href="#ao"/><use transform="matrix(0.04740740740740742,0,0,0.04740740740740742,83.34222222222225,0)" xlink:href="#ap"/><use transform="matrix(0.04740740740740742,0,0,0.04740740740740742,87.08740740740744,0)" xlink:href="#aq"/><use transform="matrix(0.04740740740740742,0,0,0.04740740740740742,95.62074074074077,0)" xlink:href="#ai"/><use transform="matrix(0.04740740740740742,0,0,0.04740740740740742,105.10222222222225,0)" xlink:href="#ar"/><use transform="matrix(0.04740740740740742,0,0,0.04740740740740742,110.74370370370373,0)" xlink:href="#as"/><use transform="matrix(0.04740740740740742,0,0,0.04740740740740742,120.22518518518521,0)" xlink:href="#at"/><use transform="matrix(0.04740740740740742,0,0,0.04740740740740742,129.7066666666667,0)" xlink:href="#ao"/><use transform="matrix(0.04740740740740742,0,0,0.04740740740740742,139.1881481481482,0)" xlink:href="#ak"/><use transform="matrix(0.04740740740740742,0,0,0.04740740740740742,143.92888888888893,0)" xlink:href="#aj"/><use transform="matrix(0.04740740740740742,0,0,0.04740740740740742,153.41037037037043,0)" xlink:href="#ak"/><use transform="matrix(0.04740740740740742,0,0,0.04740740740740742,158.15111111111116,0)" xlink:href="#ap"/><use transform="matrix(0.04740740740740742,0,0,0.04740740740740742,161.89629629629636,0)" xlink:href="#ao"/><use transform="matrix(0.04740740740740742,0,0,0.04740740740740742,171.37777777777785,0)" xlink:href="#am"/><use transform="matrix(0.04740740740740742,0,0,0.04740740740740742,180.85925925925935,0)" xlink:href="#au"/></g><path fill="#3a414a" d="M212-179c-10-28-35-45-73-45-59 0-87 40-87 99 0 60 29 101 89 101 43 0 62-24 78-52l27 14C228-24 195 4 139 4 59 4 22-46 18-125c-6-104 99-153 187-111 19 9 31 26 39 46" id="av"/><path fill="#3a414a" d="M24 0v-261h32V0H24" id="aw"/><g id="m"><use transform="matrix(0.06172839506172839,0,0,0.06172839506172839,0,0)" xlink:href="#M"/><use transform="matrix(0.06172839506172839,0,0,0.06172839506172839,6.172839506172839,0)" xlink:href="#N"/><use transform="matrix(0.06172839506172839,0,0,0.06172839506172839,12.345679012345679,0)" xlink:href="#C"/><use transform="matrix(0.06172839506172839,0,0,0.06172839506172839,24.691358024691358,0)" xlink:href="#H"/><use transform="matrix(0.06172839506172839,0,0,0.06172839506172839,35.80246913580247,0)" xlink:href="#I"/><use transform="matrix(0.06172839506172839,0,0,0.06172839506172839,48.148148148148145,0)" xlink:href="#G"/><use transform="matrix(0.06172839506172839,0,0,0.06172839506172839,53.02469135802469,0)" xlink:href="#J"/><use transform="matrix(0.06172839506172839,0,0,0.06172839506172839,64.1358024691358,0)" xlink:href="#B"/><use transform="matrix(0.06172839506172839,0,0,0.06172839506172839,76.48148148148148,0)" xlink:href="#av"/><use transform="matrix(0.06172839506172839,0,0,0.06172839506172839,92.46913580246914,0)" xlink:href="#I"/><use transform="matrix(0.06172839506172839,0,0,0.06172839506172839,104.81481481481482,0)" xlink:href="#C"/><use transform="matrix(0.06172839506172839,0,0,0.06172839506172839,117.16049382716051,0)" xlink:href="#F"/><use transform="matrix(0.06172839506172839,0,0,0.06172839506172839,123.33333333333334,0)" xlink:href="#D"/><use transform="matrix(0.06172839506172839,0,0,0.06172839506172839,130.679012345679,0)" xlink:href="#I"/><use transform="matrix(0.06172839506172839,0,0,0.06172839506172839,143.02469135802468,0)" xlink:href="#aw"/><use transform="matrix(0.06172839506172839,0,0,0.06172839506172839,147.9012345679012,0)" xlink:href="#aw"/><use transform="matrix(0.06172839506172839,0,0,0.06172839506172839,152.77777777777774,0)" xlink:href="#B"/><use transform="matrix(0.06172839506172839,0,0,0.06172839506172839,165.1234567901234,0)" xlink:href="#D"/></g><path d="M30-248c87 1 191-15 191 75 0 78-77 80-158 76V0H30v-248zm33 125c57 0 124 11 124-50 0-59-68-47-124-48v98" id="ax"/><path d="M135-143c-3-34-86-38-87 0 15 53 115 12 119 90S17 21 10-45l28-5c4 36 97 45 98 0-10-56-113-15-118-90-4-57 82-63 122-42 12 7 21 19 24 35" id="ay"/><g id="n"><use transform="matrix(0.04740740740740742,0,0,0.04740740740740742,0,0)" xlink:href="#ax"/><use transform="matrix(0.04740740740740742,0,0,0.04740740740740742,11.37777777777778,0)" xlink:href="#ao"/><use transform="matrix(0.04740740740740742,0,0,0.04740740740740742,20.859259259259264,0)" xlink:href="#ay"/><use transform="matrix(0.04740740740740742,0,0,0.04740740740740742,29.3925925925926,0)" xlink:href="#ak"/><use transform="matrix(0.04740740740740742,0,0,0.04740740740740742,34.13333333333334,0)" xlink:href="#al"/><use transform="matrix(0.04740740740740742,0,0,0.04740740740740742,38.87407407407408,0)" xlink:href="#am"/><use transform="matrix(0.04740740740740742,0,0,0.04740740740740742,48.35555555555557,0)" xlink:href="#an"/><use transform="matrix(0.04740740740740742,0,0,0.04740740740740742,56.8888888888889,0)" xlink:href="#ao"/><use transform="matrix(0.04740740740740742,0,0,0.04740740740740742,66.37037037037038,0)" xlink:href="#ap"/><use transform="matrix(0.04740740740740742,0,0,0.04740740740740742,70.11555555555557,0)" xlink:href="#aq"/><use transform="matrix(0.04740740740740742,0,0,0.04740740740740742,78.6488888888889,0)" xlink:href="#ai"/><use transform="matrix(0.04740740740740742,0,0,0.04740740740740742,88.13037037037039,0)" xlink:href="#ar"/><use transform="matrix(0.04740740740740742,0,0,0.04740740740740742,93.77185185185186,0)" xlink:href="#as"/><use transform="matrix(0.04740740740740742,0,0,0.04740740740740742,103.25333333333333,0)" xlink:href="#at"/><use transform="matrix(0.04740740740740742,0,0,0.04740740740740742,112.73481481481483,0)" xlink:href="#ao"/><use transform="matrix(0.04740740740740742,0,0,0.04740740740740742,122.2162962962963,0)" xlink:href="#ak"/><use transform="matrix(0.04740740740740742,0,0,0.04740740740740742,126.95703703703704,0)" xlink:href="#aj"/><use transform="matrix(0.04740740740740742,0,0,0.04740740740740742,136.43851851851855,0)" xlink:href="#ak"/><use transform="matrix(0.04740740740740742,0,0,0.04740740740740742,141.17925925925928,0)" xlink:href="#ap"/><use transform="matrix(0.04740740740740742,0,0,0.04740740740740742,144.92444444444448,0)" xlink:href="#ao"/><use transform="matrix(0.04740740740740742,0,0,0.04740740740740742,154.40592592592597,0)" xlink:href="#am"/><use transform="matrix(0.04740740740740742,0,0,0.04740740740740742,163.88740740740747,0)" xlink:href="#au"/></g><path fill="#3a414a" d="M30-248c118-7 216 8 213 122C240-48 200 0 122 0H30v-248zM63-27c89 8 146-16 146-99s-60-101-146-95v194" id="az"/><path fill="#3a414a" d="M115-194c53 0 69 39 70 98 0 66-23 100-70 100C84 3 66-7 56-30L54 0H23l1-261h32v101c10-23 28-34 59-34zm-8 174c40 0 45-34 45-75 0-40-5-75-45-74-42 0-51 32-51 76 0 43 10 73 51 73" id="aA"/><path fill="#3a414a" d="M101-234c-31-9-42 10-38 44h38v23H63V0H32v-167H5v-23h27c-7-52 17-82 69-68v24" id="aB"/><g id="o"><use transform="matrix(0.06172839506172839,0,0,0.06172839506172839,0,0)" xlink:href="#M"/><use transform="matrix(0.06172839506172839,0,0,0.06172839506172839,6.172839506172839,0)" xlink:href="#az"/><use transform="matrix(0.06172839506172839,0,0,0.06172839506172839,22.160493827160494,0)" xlink:href="#E"/><use transform="matrix(0.06172839506172839,0,0,0.06172839506172839,34.50617283950617,0)" xlink:href="#F"/><use transform="matrix(0.06172839506172839,0,0,0.06172839506172839,40.67901234567901,0)" xlink:href="#E"/><use transform="matrix(0.06172839506172839,0,0,0.06172839506172839,53.02469135802469,0)" xlink:href="#aA"/><use transform="matrix(0.06172839506172839,0,0,0.06172839506172839,65.37037037037037,0)" xlink:href="#E"/><use transform="matrix(0.06172839506172839,0,0,0.06172839506172839,77.71604938271605,0)" xlink:href="#y"/><use transform="matrix(0.06172839506172839,0,0,0.06172839506172839,88.82716049382717,0)" xlink:href="#B"/><use transform="matrix(0.06172839506172839,0,0,0.06172839506172839,101.17283950617285,0)" xlink:href="#N"/><use transform="matrix(0.06172839506172839,0,0,0.06172839506172839,107.34567901234568,0)" xlink:href="#C"/><use transform="matrix(0.06172839506172839,0,0,0.06172839506172839,119.69135802469137,0)" xlink:href="#F"/><use transform="matrix(0.06172839506172839,0,0,0.06172839506172839,125.8641975308642,0)" xlink:href="#B"/><use transform="matrix(0.06172839506172839,0,0,0.06172839506172839,138.20987654320987,0)" xlink:href="#D"/><use transform="matrix(0.06172839506172839,0,0,0.06172839506172839,145.55555555555554,0)" xlink:href="#aB"/><use transform="matrix(0.06172839506172839,0,0,0.06172839506172839,151.72839506172838,0)" xlink:href="#E"/><use transform="matrix(0.06172839506172839,0,0,0.06172839506172839,164.07407407407405,0)" xlink:href="#J"/><use transform="matrix(0.06172839506172839,0,0,0.06172839506172839,175.18518518518516,0)" xlink:href="#B"/></g><path fill="#333" d="M195-6C206 82 75 100 31 46c-4-6-6-13-8-21l49-6c3 16 16 24 34 25 40 0 42-37 40-79-11 22-30 35-61 35-53 0-70-43-70-97 0-56 18-96 73-97 30 0 46 14 59 34l2-30h47zm-90-29c32 0 41-27 41-63 0-35-9-62-40-62-32 0-39 29-40 63 0 36 9 62 39 62" id="aC"/><g id="p"><use transform="matrix(0.04938271604938272,0,0,0.04938271604938272,0,0)" xlink:href="#aC"/><use transform="matrix(0.04938271604938272,0,0,0.04938271604938272,10.814814814814815,0)" xlink:href="#V"/><use transform="matrix(0.04938271604938272,0,0,0.04938271604938272,20.69135802469136,0)" xlink:href="#X"/><use transform="matrix(0.04938271604938272,0,0,0.04938271604938272,26.567901234567902,0)" xlink:href="#ad"/><use transform="matrix(0.04938271604938272,0,0,0.04938271604938272,31.506172839506174,0)" xlink:href="#Y"/><use transform="matrix(0.04938271604938272,0,0,0.04938271604938272,42.320987654320994,0)" xlink:href="#Z"/><use transform="matrix(0.04938271604938272,0,0,0.04938271604938272,52.19753086419754,0)" xlink:href="#aa"/><use transform="matrix(0.04938271604938272,0,0,0.04938271604938272,63.01234567901235,0)" xlink:href="#R"/><use transform="matrix(0.04938271604938272,0,0,0.04938271604938272,67.95061728395063,0)" xlink:href="#S"/><use transform="matrix(0.04938271604938272,0,0,0.04938271604938272,77.82716049382718,0)" xlink:href="#V"/><use transform="matrix(0.04938271604938272,0,0,0.04938271604938272,87.70370370370372,0)" xlink:href="#ae"/><use transform="matrix(0.04740740740740742,0,0,0.04740740740740742,93.58024691358027,0)" xlink:href="#as"/><use transform="matrix(0.04740740740740742,0,0,0.04740740740740742,103.06172839506173,0)" xlink:href="#at"/><use transform="matrix(0.04740740740740742,0,0,0.04740740740740742,112.54320987654322,0)" xlink:href="#ao"/><use transform="matrix(0.04740740740740742,0,0,0.04740740740740742,122.02469135802471,0)" xlink:href="#ak"/><use transform="matrix(0.04740740740740742,0,0,0.04740740740740742,126.76543209876544,0)" xlink:href="#aj"/><use transform="matrix(0.04740740740740742,0,0,0.04740740740740742,136.24691358024694,0)" xlink:href="#ak"/><use transform="matrix(0.04740740740740742,0,0,0.04740740740740742,140.98765432098767,0)" xlink:href="#ap"/><use transform="matrix(0.04740740740740742,0,0,0.04740740740740742,144.73283950617287,0)" xlink:href="#ao"/><use transform="matrix(0.04740740740740742,0,0,0.04740740740740742,154.21432098765436,0)" xlink:href="#am"/><use transform="matrix(0.04740740740740742,0,0,0.04740740740740742,163.69580246913586,0)" xlink:href="#au"/></g><g id="q"><use transform="matrix(0.04938271604938272,0,0,0.04938271604938272,0,0)" xlink:href="#R"/><use transform="matrix(0.04938271604938272,0,0,0.04938271604938272,4.938271604938272,0)" xlink:href="#Y"/><use transform="matrix(0.04938271604938272,0,0,0.04938271604938272,15.753086419753087,0)" xlink:href="#Z"/></g><path fill="#333" d="M15-148v-39h180v39H15zm0 97v-39h180v39H15" id="aD"/><use transform="matrix(0.04938271604938272,0,0,0.04938271604938272,0,0)" xlink:href="#aD" id="r"/><g id="s"><use transform="matrix(0.04740740740740742,0,0,0.04740740740740742,0,0)" xlink:href="#ag"/><use transform="matrix(0.04740740740740742,0,0,0.04740740740740742,12.278518518518522,0)" xlink:href="#ah"/><use transform="matrix(0.04740740740740742,0,0,0.04740740740740742,17.920000000000005,0)" xlink:href="#ai"/><use transform="matrix(0.04740740740740742,0,0,0.04740740740740742,27.40148148148149,0)" xlink:href="#aj"/><use transform="matrix(0.04740740740740742,0,0,0.04740740740740742,36.88296296296298,0)" xlink:href="#ak"/><use transform="matrix(0.04740740740740742,0,0,0.04740740740740742,41.62370370370372,0)" xlink:href="#ai"/><use transform="matrix(0.04740740740740742,0,0,0.04740740740740742,51.105185185185206,0)" xlink:href="#al"/><use transform="matrix(0.04740740740740742,0,0,0.04740740740740742,55.84592592592595,0)" xlink:href="#am"/><use transform="matrix(0.04740740740740742,0,0,0.04740740740740742,65.32740740740743,0)" xlink:href="#an"/><use transform="matrix(0.04740740740740742,0,0,0.04740740740740742,73.86074074074077,0)" xlink:href="#ao"/><use transform="matrix(0.04740740740740742,0,0,0.04740740740740742,83.34222222222225,0)" xlink:href="#ap"/><use transform="matrix(0.04740740740740742,0,0,0.04740740740740742,87.08740740740744,0)" xlink:href="#aq"/><use transform="matrix(0.04740740740740742,0,0,0.04740740740740742,95.62074074074077,0)" xlink:href="#ai"/><use transform="matrix(0.04740740740740742,0,0,0.04740740740740742,105.10222222222225,0)" xlink:href="#ar"/><use transform="matrix(0.04740740740740742,0,0,0.04740740740740742,110.74370370370373,0)" xlink:href="#as"/><use transform="matrix(0.04740740740740742,0,0,0.04740740740740742,120.22518518518521,0)" xlink:href="#at"/><use transform="matrix(0.04740740740740742,0,0,0.04740740740740742,129.7066666666667,0)" xlink:href="#ao"/><use transform="matrix(0.04740740740740742,0,0,0.04740740740740742,139.1881481481482,0)" xlink:href="#ak"/><use transform="matrix(0.04740740740740742,0,0,0.04740740740740742,143.92888888888893,0)" xlink:href="#aj"/><use transform="matrix(0.04740740740740742,0,0,0.04740740740740742,153.41037037037043,0)" xlink:href="#ak"/><use transform="matrix(0.04740740740740742,0,0,0.04740740740740742,158.15111111111116,0)" xlink:href="#ap"/><use transform="matrix(0.04740740740740742,0,0,0.04740740740740742,161.89629629629636,0)" xlink:href="#ao"/><use transform="matrix(0.04740740740740742,0,0,0.04740740740740742,171.37777777777785,0)" xlink:href="#am"/><use transform="matrix(0.04740740740740742,0,0,0.04740740740740742,180.85925925925935,0)" xlink:href="#au"/></g><path d="M85-194c31 0 48 13 60 33l-1-100h32l1 261h-30c-2-10 0-23-3-31C134-8 116 4 85 4 32 4 16-35 15-94c0-66 23-100 70-100zm9 24c-40 0-46 34-46 75 0 40 6 74 45 74 42 0 51-32 51-76 0-42-9-74-50-73" id="aE"/><g id="t"><use transform="matrix(0.04740740740740742,0,0,0.04740740740740742,0,0)" xlink:href="#ap"/><use transform="matrix(0.04740740740740742,0,0,0.04740740740740742,3.745185185185186,0)" xlink:href="#ay"/><use transform="matrix(0.04740740740740742,0,0,0.04740740740740742,12.278518518518522,0)" xlink:href="#ag"/><use transform="matrix(0.04740740740740742,0,0,0.04740740740740742,24.557037037037045,0)" xlink:href="#ah"/><use transform="matrix(0.04740740740740742,0,0,0.04740740740740742,30.198518518518526,0)" xlink:href="#ai"/><use transform="matrix(0.04740740740740742,0,0,0.04740740740740742,39.68000000000001,0)" xlink:href="#aj"/><use transform="matrix(0.04740740740740742,0,0,0.04740740740740742,49.16148148148148,0)" xlink:href="#ak"/><use transform="matrix(0.04740740740740742,0,0,0.04740740740740742,53.90222222222222,0)" xlink:href="#ai"/><use transform="matrix(0.04740740740740742,0,0,0.04740740740740742,63.383703703703716,0)" xlink:href="#aE"/></g><path d="M18-150v-26h174v26H18zm0 90v-26h174v26H18" id="aF"/><use transform="matrix(0.04740740740740742,0,0,0.04740740740740742,0,0)" xlink:href="#aF" id="u"/><g id="v"><use transform="matrix(0.04740740740740742,0,0,0.04740740740740742,0,0)" xlink:href="#ax"/><use transform="matrix(0.04740740740740742,0,0,0.04740740740740742,11.37777777777778,0)" xlink:href="#ao"/><use transform="matrix(0.04740740740740742,0,0,0.04740740740740742,20.859259259259264,0)" xlink:href="#ay"/><use transform="matrix(0.04740740740740742,0,0,0.04740740740740742,29.3925925925926,0)" xlink:href="#ak"/><use transform="matrix(0.04740740740740742,0,0,0.04740740740740742,34.13333333333334,0)" xlink:href="#al"/><use transform="matrix(0.04740740740740742,0,0,0.04740740740740742,38.87407407407408,0)" xlink:href="#am"/><use transform="matrix(0.04740740740740742,0,0,0.04740740740740742,48.35555555555557,0)" xlink:href="#an"/><use transform="matrix(0.04740740740740742,0,0,0.04740740740740742,56.8888888888889,0)" xlink:href="#ao"/><use transform="matrix(0.04740740740740742,0,0,0.04740740740740742,66.37037037037038,0)" xlink:href="#ap"/><use transform="matrix(0.04740740740740742,0,0,0.04740740740740742,70.11555555555557,0)" xlink:href="#aq"/><use transform="matrix(0.04740740740740742,0,0,0.04740740740740742,78.6488888888889,0)" xlink:href="#ai"/><use transform="matrix(0.04740740740740742,0,0,0.04740740740740742,88.13037037037039,0)" xlink:href="#ar"/><use transform="matrix(0.04740740740740742,0,0,0.04740740740740742,93.77185185185186,0)" xlink:href="#as"/><use transform="matrix(0.04740740740740742,0,0,0.04740740740740742,103.25333333333333,0)" xlink:href="#at"/><use transform="matrix(0.04740740740740742,0,0,0.04740740740740742,112.73481481481483,0)" xlink:href="#ao"/><use transform="matrix(0.04740740740740742,0,0,0.04740740740740742,122.2162962962963,0)" xlink:href="#ak"/><use transform="matrix(0.04740740740740742,0,0,0.04740740740740742,126.95703703703704,0)" xlink:href="#aj"/><use transform="matrix(0.04740740740740742,0,0,0.04740740740740742,136.43851851851855,0)" xlink:href="#ak"/><use transform="matrix(0.04740740740740742,0,0,0.04740740740740742,141.17925925925928,0)" xlink:href="#ap"/><use transform="matrix(0.04740740740740742,0,0,0.04740740740740742,144.92444444444448,0)" xlink:href="#ao"/><use transform="matrix(0.04740740740740742,0,0,0.04740740740740742,154.40592592592597,0)" xlink:href="#am"/><use transform="matrix(0.04740740740740742,0,0,0.04740740740740742,163.88740740740747,0)" xlink:href="#au"/></g><path fill="#333" d="M137-138c1-29-70-34-71-4 15 46 118 7 119 86 1 83-164 76-172 9l43-7c4 19 20 25 44 25 33 8 57-30 24-41C81-84 22-81 20-136c-2-80 154-74 161-7" id="aG"/><path fill="#333" d="M88-194c31-1 46 15 58 34l-1-101h50l1 261h-48c-2-10 0-23-3-31C134-8 116 4 84 4 32 4 16-41 15-95c0-56 19-97 73-99zm17 164c33 0 40-30 41-66 1-37-9-64-41-64s-38 30-39 65c0 43 13 65 39 65" id="aH"/><g id="w"><use transform="matrix(0.04938271604938272,0,0,0.04938271604938272,0,0)" xlink:href="#R"/><use transform="matrix(0.04938271604938272,0,0,0.04938271604938272,4.938271604938272,0)" xlink:href="#aG"/><use transform="matrix(0.04938271604938272,0,0,0.04938271604938272,14.814814814814817,0)" xlink:href="#P"/><use transform="matrix(0.04938271604938272,0,0,0.04938271604938272,27.604938271604947,0)" xlink:href="#U"/><use transform="matrix(0.04938271604938272,0,0,0.04938271604938272,34.518518518518526,0)" xlink:href="#V"/><use transform="matrix(0.04938271604938272,0,0,0.04938271604938272,44.39506172839507,0)" xlink:href="#W"/><use transform="matrix(0.04938271604938272,0,0,0.04938271604938272,54.27160493827161,0)" xlink:href="#X"/><use transform="matrix(0.04938271604938272,0,0,0.04938271604938272,60.14814814814817,0)" xlink:href="#V"/><use transform="matrix(0.04938271604938272,0,0,0.04938271604938272,70.02469135802471,0)" xlink:href="#aH"/></g><path fill="#333" d="M135-194c53 0 70 44 70 98 0 56-19 98-73 100-31 1-45-17-59-34 3 33 2 69 2 105H25l-1-265h48c2 10 0 23 3 31 11-24 29-35 60-35zM114-30c33 0 39-31 40-66 0-38-9-64-40-64-56 0-55 130 0 130" id="aI"/><path fill="#333" d="M123 10C108 53 80 86 19 72V37c35 8 53-11 59-39L3-190h52l48 148c12-52 28-100 44-148h51" id="aJ"/><path fill="#333" d="M169-182c-1-43-94-46-97-3 18 66 151 10 154 114 3 95-165 93-204 36-6-8-10-19-12-30l50-8c3 46 112 56 116 5-17-69-150-10-154-114-4-87 153-88 188-35 5 8 8 18 10 28" id="aK"/><g id="x"><use transform="matrix(0.04938271604938272,0,0,0.04938271604938272,0,0)" xlink:href="#aH"/><use transform="matrix(0.04938271604938272,0,0,0.04938271604938272,10.814814814814815,0)" xlink:href="#R"/><use transform="matrix(0.04938271604938272,0,0,0.04938271604938272,15.753086419753087,0)" xlink:href="#aG"/><use transform="matrix(0.04938271604938272,0,0,0.04938271604938272,25.629629629629633,0)" xlink:href="#aI"/><use transform="matrix(0.04938271604938272,0,0,0.04938271604938272,36.44444444444445,0)" xlink:href="#Q"/><use transform="matrix(0.04938271604938272,0,0,0.04938271604938272,41.38271604938272,0)" xlink:href="#W"/><use transform="matrix(0.04938271604938272,0,0,0.04938271604938272,51.25925925925927,0)" xlink:href="#aJ"/><use transform="matrix(0.04938271604938272,0,0,0.04938271604938272,61.13580246913581,0)" xlink:href="#ad"/><use transform="matrix(0.04938271604938272,0,0,0.04938271604938272,66.07407407407408,0)" xlink:href="#Y"/><use transform="matrix(0.04938271604938272,0,0,0.04938271604938272,76.88888888888889,0)" xlink:href="#Z"/><use transform="matrix(0.04938271604938272,0,0,0.04938271604938272,86.76543209876543,0)" xlink:href="#aa"/><use transform="matrix(0.04938271604938272,0,0,0.04938271604938272,97.58024691358024,0)" xlink:href="#R"/><use transform="matrix(0.04938271604938272,0,0,0.04938271604938272,102.5185185185185,0)" xlink:href="#S"/><use transform="matrix(0.04938271604938272,0,0,0.04938271604938272,112.39506172839505,0)" xlink:href="#V"/><use transform="matrix(0.04938271604938272,0,0,0.04938271604938272,122.2716049382716,0)" xlink:href="#aK"/><use transform="matrix(0.04938271604938272,0,0,0.04938271604938272,134.12345679012344,0)" xlink:href="#X"/><use transform="matrix(0.04938271604938272,0,0,0.04938271604938272,139.99999999999997,0)" xlink:href="#W"/><use transform="matrix(0.04938271604938272,0,0,0.04938271604938272,149.8765432098765,0)" xlink:href="#X"/><use transform="matrix(0.04938271604938272,0,0,0.04938271604938272,155.75308641975303,0)" xlink:href="#ac"/><use transform="matrix(0.04938271604938272,0,0,0.04938271604938272,166.56790123456784,0)" xlink:href="#aG"/><use transform="matrix(0.04938271604938272,0,0,0.04938271604938272,176.4444444444444,0)" xlink:href="#ae"/><use transform="matrix(0.04938271604938272,0,0,0.04938271604938272,182.32098765432093,0)" xlink:href="#R"/><use transform="matrix(0.04938271604938272,0,0,0.04938271604938272,187.2592592592592,0)" xlink:href="#aG"/><use transform="matrix(0.04938271604938272,0,0,0.04938271604938272,197.13580246913574,0)" xlink:href="#P"/><use transform="matrix(0.04938271604938272,0,0,0.04938271604938272,209.92592592592587,0)" xlink:href="#U"/><use transform="matrix(0.04938271604938272,0,0,0.04938271604938272,216.83950617283944,0)" xlink:href="#V"/><use transform="matrix(0.04938271604938272,0,0,0.04938271604938272,226.71604938271597,0)" xlink:href="#W"/><use transform="matrix(0.04938271604938272,0,0,0.04938271604938272,236.59259259259258,0)" xlink:href="#X"/><use transform="matrix(0.04938271604938272,0,0,0.04938271604938272,242.46913580246905,0)" xlink:href="#V"/><use transform="matrix(0.04938271604938272,0,0,0.04938271604938272,252.3456790123456,0)" xlink:href="#aH"/><use transform="matrix(0.04938271604938272,0,0,0.04938271604938272,263.16049382716045,0)" xlink:href="#af"/></g></defs></g></svg>