<svg xmlns="http://www.w3.org/2000/svg" xmlns:xlink="http://www.w3.org/1999/xlink" xmlns:lucid="lucid" width="2780" height="2160"><g transform="translate(-740 -60)" lucid:page-tab-id="0_0"><path d="M0 0h3677.73v2581.67H0z" fill="#fff"/><path d="M2080 1046a6 6 0 0 1 6-6h88a6 6 0 0 1 6 6v8a14.48 14.48 0 0 1-4.24 10.24l-1.52 1.52A14.48 14.48 0 0 1 2164 1070h-78a6 6 0 0 1-6-6z" fill="#fff"/><path d="M2180 1040v20l-10 10h-90" stroke="#3a414a" stroke-width="3" fill="none"/><path d="M2080 1046a6 6 0 0 1 6-6h1168a6 6 0 0 1 6 6v368a6 6 0 0 1-6 6H2086a6 6 0 0 1-6-6z" stroke="#3a414a" stroke-width="3" fill="none"/><use xlink:href="#a" transform="matrix(1,0,0,1,2088,1040) translate(0 19.444444444444443)"/><use xlink:href="#b" transform="matrix(1,0,0,1,2092,1078) translate(0 19.444444444444443)"/><use xlink:href="#c" transform="matrix(1,0,0,1,2092,1078) translate(98.64197530864197 19.444444444444443)"/><use xlink:href="#d" transform="matrix(1,0,0,1,2092,1078) translate(117.77777777777777 19.444444444444443)"/><path d="M760 86a6 6 0 0 1 6-6h213a6 6 0 0 1 6 6v8a14.48 14.48 0 0 1-4.24 10.24l-1.52 1.52A14.48 14.48 0 0 1 969 110H766a6 6 0 0 1-6-6z" fill="#fff"/><path d="M985 80v20l-10 10H760" stroke="#3a414a" stroke-width="3" fill="none"/><path d="M760 86a6 6 0 0 1 6-6h2728a6 6 0 0 1 6 6v2108a6 6 0 0 1-6 6H766a6 6 0 0 1-6-6z" stroke="#3a414a" stroke-width="3" fill="none"/><use xlink:href="#e" transform="matrix(1,0,0,1,768,80) translate(0 19.444444444444443)"/><use xlink:href="#f" transform="matrix(1,0,0,1,768,80) translate(29.62962962962963 19.444444444444443)"/><use xlink:href="#g" transform="matrix(1,0,0,1,768,80) translate(72.8395061728395 19.444444444444443)"/><use xlink:href="#h" transform="matrix(1,0,0,1,768,80) translate(103.7037037037037 19.444444444444443)"/><path d="M942.25 132.25c0 6.76-5.5 12.25-12.25 12.25-6.76 0-12.25-5.5-12.25-12.25 0-6.77 5.5-12.25 12.25-12.25 6.76 0 12.25 5.48 12.25 12.25z" stroke="#3a414a" stroke-width="3" fill="#fff"/><path d="M930 144.5v28.3a17.7 17.7 0 0 0 3.65 10.76L960 218m-30-39.2L900 218m0-61.25h60" stroke="#3a414a" stroke-width="3" fill="none"/><path d="M900 126a6 6 0 0 1 6-6h48a6 6 0 0 1 6 6v108a6 6 0 0 1-6 6h-48a6 6 0 0 1-6-6z" fill="none"/><use xlink:href="#i" transform="matrix(1,0,0,1,820,218) translate(57.623456790123456 17.77777777777778)"/><path d="M930 182.27v9.93m0 9.93V222m0 9.92v19.86m0 9.93v19.87m0 9.93v19.85m0 9.93v19.86m0 9.93v19.86m0 9.93v19.86m0 9.93v19.86m0 9.94v19.86m0 9.93v19.86m0 9.92v19.86m0 9.93v19.87m0 9.93v19.86m0 9.93v19.85m0 9.93v19.86m0 9.93v19.86m0 9.93v19.86m0 9.93v19.86m0 9.94v19.86m0 9.92V788m0 9.9v19.87m0 9.93v19.86m0 9.93v19.85m0 9.93v19.86m0 9.93v19.86m0 9.93v19.86m0 9.93v19.86m0 9.94v19.86m0 9.93v19.86m0 9.92v19.86m0 9.93v19.87m0 9.93v19.86m0 9.93v19.85m0 9.93v19.86m0 9.93v19.86m0 9.93v19.86m0 9.93v19.86m0 9.93v19.86m0 9.92v19.86m0 9.93v19.87m0 9.93v19.86m0 9.93v19.85m0 9.93v19.86m0 9.93v19.86m0 9.93v19.86m0 9.93v19.86m0 9.94v19.86m0 9.93v19.86m0 9.92v19.86m0 9.93v19.87m0 9.93v19.86m0 9.93v19.84m0 9.93v19.87m0 9.92v19.86m0 9.93v19.86m0 9.94v19.86m0 9.93v19.86m0 9.92v19.86m0 9.93v19.87m0 9.93v19.86m0 9.93v19.85m0 9.93v19.86m0 9.93v9.93M930 2058.97v1.03" stroke="#3a414a" stroke-width="2" fill="none"/><path d="M910 286a6 6 0 0 1 6-6h28a6 6 0 0 1 6 6v1388a6 6 0 0 1-6 6h-28a6 6 0 0 1-6-6zM1320 106a6 6 0 0 1 6-6h148a6 6 0 0 1 6 6v108a6 6 0 0 1-6 6h-148a6 6 0 0 1-6-6z" stroke="#3a414a" stroke-width="3" fill="#fff"/><use xlink:href="#j" transform="matrix(1,0,0,1,1332,112.00000000000045) translate(10.623456790123456 53.77777777777778)"/><path d="M1400 222.5v10.03m0 10.04v20.07m0 10.04v20.07m0 10.03v20.08m0 10.03v20.06m0 10.04v20.07m0 10.03v20.07m0 10.04v20.08m0 10.04v20.07m0 10.02v20.07m0 10.03v20.07m0 10.04v20.07m0 10.04v20.07m0 10.05v20.07m0 10.04v20.07m0 10.03v20.07m0 10.04v20.07m0 10.04v20.07m0 10.03v20.07m0 10.04v20.06m0 10.04v20.07m0 10.03v20.07m0 10.04v20.08m0 10.03V925m0 10.02v20.07m0 10.03v20.07m0 10.03v20.08m0 10.04v20.07m0 10.05v20.07m0 10.04v20.07m0 10.03v20.07m0 10.04v20.07m0 10.03v20.08m0 10.03v20.07m0 10.04v20.06m0 10.03v20.07m0 10.03v20.07m0 10.04v20.08m0 10.03v20.1m0 10.02v20.07m0 10.03v20.07m0 10.03v20.07m0 10.04V1497m0 10.05v20.07m0 10.03v20.07m0 10.04v20.07m0 10.04v20.07m0 10.03v20.07m0 10.04v20.07m0 10.04v20.06m0 10.03v20.06m0 10.04v20.07m0 10.04v20.08m0 10.03v20.08m0 10.04v20.07m0 10.03v20.07m0 10.03v20.07m0 10.04v20.07m0 10.05v20.07m0 10.03v20.07m0 10.04v20.07m0 10.03V2059" stroke="#3a414a" stroke-width="2" fill="none"/><path d="M1401 222.53h-2v-1.03h2z" stroke="#3a414a" stroke-width=".05" fill="#3a414a"/><path d="M1400 2058.97v1.03" stroke="#3a414a" stroke-width="2" fill="none"/><path d="M1380 286a6 6 0 0 1 6-6h28a6 6 0 0 1 6 6v1648a6 6 0 0 1-6 6h-28a6 6 0 0 1-6-6z" stroke="#3a414a" stroke-width="3" fill="#fff"/><path d="M952.5 377.5H1360" stroke="#3a414a" stroke-width="2" fill="none"/><path d="M952.53 378.5h-1.03v-2h1.03z" stroke="#3a414a" stroke-width=".05" fill="#3a414a"/><path d="M1375.26 377.5l-14.26 4.63v-9.27z" stroke="#3a414a" stroke-width="2" fill="#3a414a"/><use xlink:href="#k" transform="matrix(1,0,0,1,1066.5552619524483,352.1655489885422) translate(0 14.222222222222223)"/><use xlink:href="#l" transform="matrix(1,0,0,1,1066.5552619524483,352.1655489885422) translate(47.35802469135803 14.222222222222223)"/><use xlink:href="#m" transform="matrix(1,0,0,1,1066.5552619524483,352.1655489885422) translate(78.8641975308642 14.222222222222223)"/><use xlink:href="#n" transform="matrix(1,0,0,1,1066.5552619524483,352.1655489885422) translate(141.87654320987656 14.222222222222223)"/><path d="M1760 406a6 6 0 0 1 6-6h148a6 6 0 0 1 6 6v108a6 6 0 0 1-6 6h-148a6 6 0 0 1-6-6z" stroke="#3a414a" stroke-width="3" fill="#fff"/><use xlink:href="#o" transform="matrix(1,0,0,1,1760,400) translate(14.055000000000001 63.15)"/><path d="M1840 522.5v10.04m0 10.05v20.07m0 10.04v20.1m0 10.04v20.08m0 10.05v20.08m0 10.05v20.08m0 10.04v20.1m0 10.03v20.08m0 10.05v20.08m0 10.05v20.1m0 10.03v20.1m0 10.03v20.08m0 10.05v20.07m0 10.04v20.1m0 10.04v20.1m0 10.03v20.08m0 10.05v20.08m0 10.04v20.1m0 10.03v20.1m0 10.03v20.08m0 10.05v20.1m0 10.03v20.1m0 10.03v20.1m0 10.03v20.07m0 10.05v20.08m0 10.04v20.1m0 10.03v20.1m0 10.03v20.08m0 10.05v20.08m0 10.05v20.1m0 10.03v20.1m0 10.03v20.1m0 10.04v20.08m0 10.04v20.1m0 10.03v20.08m0 10.04V1587m0 10.05v20.08m0 10.04v20.1m0 10.03v20.1m0 10.03v20.08m0 10.06v20.08m0 10.04v20.1m0 10.03v20.1m0 10.04v20.08m0 10.05v20.08m0 10.04v20.08m0 10.04v20.1m0 10.03v20.08m0 10.05v20.08m0 10.04v20.1m0 10.03v20.1m0 10.03V2059" stroke="#3a414a" stroke-width="2" fill="none"/><path d="M1841 522.53h-2v-1.03h2z" stroke="#3a414a" stroke-width=".05" fill="#3a414a"/><path d="M1840 2058.97v1.03" stroke="#3a414a" stroke-width="2" fill="none"/><path d="M1820 586a6 6 0 0 1 6-6h28a6 6 0 0 1 6 6v1148a6 6 0 0 1-6 6h-28a6 6 0 0 1-6-6z" stroke="#3a414a" stroke-width="3" fill="#fff"/><path d="M1423 752.04h374.88" stroke="#3a414a" stroke-width="3" fill="none"/><path d="M1423.04 753.54h-1.54v-3h1.54z" stroke="#3a414a" stroke-width=".05" fill="#3a414a"/><path d="M1813.64 752.04l-14.26 4.64v-9.27z" stroke="#3a414a" stroke-width="3" fill="#3a414a"/><use xlink:href="#p" transform="matrix(1,0,0,1,1512.503674150698,727.5603559375585) translate(0 13.653333333333336)"/><path d="M2160 106a6 6 0 0 1 6-6h288a6 6 0 0 1 6 6v108a6 6 0 0 1-6 6h-288a6 6 0 0 1-6-6z" stroke="#3a414a" stroke-width="3" fill="#fff"/><path d="M2190 100v120m240-120v120" stroke="#3a414a" stroke-width="3" fill="none"/><use xlink:href="#q" transform="matrix(1,0,0,1,2202.5,105) translate(12.037037037037067 59.44444444444444)"/><path d="M1422.5 445.4h9.3m9.3 0h18.62m9.3 0h18.62m9.3 0h18.62m9.3 0h18.6m9.32 0h18.6m9.3 0h18.58m9.26 0h18.52m9.26 0h18.52m9.26 0h18.52m9.26 0h18.52m9.26 0h18.52m9.26 0h9.26" stroke="#3a414a" stroke-width="2" fill="none"/><path d="M1422.53 446.4h-1.03v-2h1.03z" stroke="#3a414a" stroke-width=".05" fill="#3a414a"/><path d="M1739.32 455.6l17.22-10.2-17.22-10.17" stroke="#3a414a" stroke-width="2" fill="none"/><use xlink:href="#r" transform="matrix(1,0,0,1,1537.3775111304155,415.81028872853796) translate(0 17.06666666666667)"/><use xlink:href="#s" transform="matrix(1,0,0,1,1537.3775111304155,415.81028872853796) translate(5.9259259259259265 17.06666666666667)"/><path d="M2310 222.5v10.03m0 10.04v20.07m0 10.04v20.07m0 10.03v20.08m0 10.03v20.06m0 10.04v20.07m0 10.03v20.07m0 10.04v20.08m0 10.04v20.07m0 10.02v20.07m0 10.03v20.07m0 10.04v20.07m0 10.04v20.07m0 10.05v20.07m0 10.04v20.07m0 10.03v20.07m0 10.04v20.07m0 10.04v20.07m0 10.03v20.07m0 10.04v20.06m0 10.04v20.07m0 10.03v20.07m0 10.04v20.08m0 10.03V925m0 10.02v20.07m0 10.03v20.07m0 10.03v20.08m0 10.04v20.07m0 10.05v20.07m0 10.04v20.07m0 10.03v20.07m0 10.04v20.07m0 10.03v20.08m0 10.03v20.07m0 10.04v20.06m0 10.03v20.07m0 10.03v20.07m0 10.04v20.08m0 10.03v20.1m0 10.02v20.07m0 10.03v20.07m0 10.03v20.07m0 10.04V1497m0 10.05v20.07m0 10.03v20.07m0 10.04v20.07m0 10.04v20.07m0 10.03v20.07m0 10.04v20.07m0 10.04v20.06m0 10.03v20.06m0 10.04v20.07m0 10.04v20.08m0 10.03v20.08m0 10.04v20.07m0 10.03v20.07m0 10.03v20.07m0 10.04v20.07m0 10.05v20.07m0 10.03v20.07m0 10.04v20.07m0 10.03V2059" stroke="#3a414a" stroke-width="2" fill="none"/><path d="M2311 222.53h-2v-1.03h2z" stroke="#3a414a" stroke-width=".05" fill="#3a414a"/><path d="M2310 2058.97v1.03" stroke="#3a414a" stroke-width="2" fill="none"/><path d="M2290 566a6 6 0 0 1 6-6h28a6 6 0 0 1 6 6v1148a6 6 0 0 1-6 6h-28a6 6 0 0 1-6-6z" stroke="#3a414a" stroke-width="3" fill="#fff"/><path d="M1863 850.82h404.88" stroke="#3a414a" stroke-width="3" fill="none"/><path d="M1863.04 852.32h-1.54v-3h1.54z" stroke="#3a414a" stroke-width=".05" fill="#3a414a"/><path d="M2283.64 850.82l-14.26 4.64v-9.28z" stroke="#3a414a" stroke-width="3" fill="#3a414a"/><use xlink:href="#t" transform="matrix(1,0,0,1,1964.6592331983288,826.3405200912605) translate(0 13.653333333333336)"/><path d="M2900 106a6 6 0 0 1 6-6h268a6 6 0 0 1 6 6v108a6 6 0 0 1-6 6h-268a6 6 0 0 1-6-6z" stroke="#3a414a" stroke-width="3" fill="#fff"/><path d="M2928 100v120m224-120v120" stroke="#3a414a" stroke-width="3" fill="none"/><use xlink:href="#u" transform="matrix(1,0,0,1,2940,105) translate(6.234567901234584 59.44444444444444)"/><path d="M3040 222.5v9.93m0 9.92v19.85m0 9.93v19.85m0 9.93v19.86m0 9.93v19.84m0 9.93v19.85m0 9.93v19.85m0 9.92v19.86m0 9.92v19.86m0 9.92v19.85m0 9.93v19.85m0 9.94V560m0 9.92v19.85m0 9.93v19.85m0 9.93v19.85m0 9.92v19.86m0 9.93v19.86m0 9.9v19.86m0 9.93v19.84m0 9.93v19.85m0 9.93V828m0 9.93v19.85m0 9.93v19.86m0 9.92v19.86m0 9.92v19.86m0 9.92v19.85m0 9.92v19.85m0 9.93v19.85m0 9.93v19.85m0 9.93V1096m0 9.93v19.86m0 9.9v19.87m0 9.92v19.84m0 9.93v19.85m0 9.93v19.85m0 9.93v19.85m0 9.93v19.86m0 9.92v19.86m0 9.92v19.86m0 9.92v19.86m0 9.92v19.85m0 9.93v19.85m0 9.93v19.85m0 9.93v19.85m0 9.94v19.85m0 9.9v19.87m0 9.92v19.85m0 9.92v19.86m0 9.92v19.85m0 9.93v19.85m0 9.93v19.86m0 9.93v19.84m0 9.93v19.85m0 9.92v19.86m0 9.92v19.86m0 9.92v19.85m0 9.93v19.85m0 9.93v19.85m0 9.94v19.85m0 9.92v19.85m0 9.93v19.85m0 9.92v9.93" stroke="#3a414a" stroke-width="2" fill="none"/><path d="M3041 222.53h-2v-1.03h2z" stroke="#3a414a" stroke-width=".05" fill="#3a414a"/><path d="M3040 2038.97v1.03" stroke="#3a414a" stroke-width="2" fill="none"/><path d="M3020 566a6 6 0 0 1 6-6h28a6 6 0 0 1 6 6v1068a6 6 0 0 1-6 6h-28a6 6 0 0 1-6-6z" stroke="#3a414a" stroke-width="3" fill="#fff"/><path d="M2333 898.15h682.77" stroke="#3a414a" stroke-width="3" fill="none"/><path d="M2333.04 899.65h-1.54v-3h1.54z" stroke="#3a414a" stroke-width=".05" fill="#3a414a"/><path d="M2998.34 908.33l17.2-10.18-17.2-10.18" stroke="#3a414a" stroke-width="3" fill="none"/><use xlink:href="#v" transform="matrix(1,0,0,1,2562.552572609392,872.8193490215554) translate(0 14.222222222222223)"/><path d="M3017.5 986.64h-10.38m-10.38 0H2976m-10.4 0h-20.75m-10.38 0h-20.76m-10.37 0h-20.75m-10.38 0h-20.76m-10.38 0h-20.76m-10.38 0h-20.75m-10.38 0h-20.77m-10.38 0h-20.76m-10.4 0h-20.74m-10.38 0h-20.23m-9.85 0h-19.7m-9.84 0h-19.7m-9.85 0h-19.68m-9.85 0h-19.7m-9.85 0h-19.7m-9.84 0h-19.7m-9.85 0h-19.7m-9.84 0h-19.7m-9.86 0h-19.7m-9.84 0h-19.7m-9.85 0H2350" stroke="#3a414a" stroke-width="2" fill="none"/><path d="M3018.5 987.64h-1.03v-2h1.03z" stroke="#3a414a" stroke-width=".05" fill="#3a414a"/><path d="M2334.74 986.64L2349 982v9.28z" stroke="#3a414a" stroke-width="2" fill="#3a414a"/><use xlink:href="#w" transform="matrix(1,0,0,1,2519.9036917174385,990.6432463676639) translate(0 14.222222222222223)"/><use xlink:href="#x" transform="matrix(1,0,0,1,2519.9036917174385,990.6432463676639) translate(80.83950617283952 14.222222222222223)"/><use xlink:href="#y" transform="matrix(1,0,0,1,2519.9036917174385,990.6432463676639) translate(96.14814814814817 14.222222222222223)"/><path d="M2333 1184.2h682.77" stroke="#3a414a" stroke-width="3" fill="none"/><path d="M2333.04 1185.7h-1.54v-3h1.54z" stroke="#3a414a" stroke-width=".05" fill="#3a414a"/><path d="M2998.34 1194.38l17.2-10.18-17.2-10.18" stroke="#3a414a" stroke-width="3" fill="none"/><use xlink:href="#z" transform="matrix(1,0,0,1,2561.5896354969873,1158.8702432990824) translate(0 14.222222222222223)"/><path d="M3017.5 1282.98h-10.38m-10.38 0H2976m-10.4 0h-20.75m-10.38 0h-20.76m-10.37 0h-20.75m-10.38 0h-20.76m-10.38 0h-20.76m-10.38 0h-20.75m-10.38 0h-20.77m-10.38 0h-20.76m-10.4 0h-20.74m-10.38 0h-20.23m-9.85 0h-19.7m-9.84 0h-19.7m-9.85 0h-19.68m-9.85 0h-19.7m-9.85 0h-19.7m-9.84 0h-19.7m-9.85 0h-19.7m-9.84 0h-19.7m-9.86 0h-19.7m-9.84 0h-19.7m-9.85 0H2350" stroke="#3a414a" stroke-width="2" fill="none"/><path d="M3018.5 1283.98h-1.03v-2h1.03z" stroke="#3a414a" stroke-width=".05" fill="#3a414a"/><path d="M2334.74 1282.98l14.26-4.63v9.27z" stroke="#3a414a" stroke-width="2" fill="#3a414a"/><use xlink:href="#A" transform="matrix(1,0,0,1,2503.133348127503,1286.9837413584444) translate(0 14.222222222222223)"/><use xlink:href="#x" transform="matrix(1,0,0,1,2503.133348127503,1286.9837413584444) translate(113.4320987654321 14.222222222222223)"/><use xlink:href="#B" transform="matrix(1,0,0,1,2503.133348127503,1286.9837413584444) translate(128.74074074074073 14.222222222222223)"/><path d="M2287.5 1558.74h-10.12m-10.12 0h-20.24m-10.1 0h-20.25m-10.12 0h-20.24m-10.1 0h-20.25m-10.12 0h-20.24m-10.12 0h-20.24m-10.12 0h-20.95m-10.84 0h-21.66m-10.84 0h-21.66m-10.84 0h-21.66m-10.84 0h-21.66m-10.83 0h-21.67m-10.83 0H1880" stroke="#3a414a" stroke-width="2" fill="none"/><path d="M2288.5 1559.74h-1.03v-2h1.03z" stroke="#3a414a" stroke-width=".05" fill="#3a414a"/><path d="M1864.74 1558.74l14.26-4.63v9.28z" stroke="#3a414a" stroke-width="2" fill="#3a414a"/><use xlink:href="#C" transform="matrix(1,0,0,1,1912.7827516543512,1562.7450347146396) translate(0 14.222222222222223)"/><use xlink:href="#D" transform="matrix(1,0,0,1,1912.7827516543512,1562.7450347146396) translate(83.70370370370372 14.222222222222223)"/><use xlink:href="#E" transform="matrix(1,0,0,1,1912.7827516543512,1562.7450347146396) translate(103.75308641975312 14.222222222222223)"/><path d="M1818 1639h-380.12" stroke="#3a414a" fill="none"/><path d="M1818.5 1639.5h-.5v-1h.5z" stroke="#3a414a" stroke-width=".05" fill="#3a414a"/><path d="M1423.12 1639l14.27-4.63-.02 9.27z" stroke="#3a414a" fill="#3a414a"/><g><use xlink:href="#F" transform="matrix(1,0,0,1,1580.6173110088835,1643.0039174760184) translate(0 14.222222222222223)"/></g><path d="M1400 1746a6 6 0 0 1 6-6h28a6 6 0 0 1 6 6v108a6 6 0 0 1-6 6h-28a6 6 0 0 1-6-6z" stroke="#3a414a" stroke-width="3" fill="#fff"/><path d="M1420 1737v-32.5a6 6 0 0 1 6-6h49.5a6 6 0 0 1 6 6v105.48a6 6 0 0 1-6 6h-13.38" stroke="#3a414a" stroke-width="3" fill="none"/><path d="M1421.5 1738.5h-3v-1.54h3z" stroke="#3a414a" stroke-width=".05" fill="#3a414a"/><path d="M1446.35 1815.98l14.27-4.63v9.27z" stroke="#3a414a" stroke-width="3" fill="#3a414a"/><g><use xlink:href="#G" transform="matrix(1,0,0,1,1443.7680558753427,1674.0789603137337) translate(0 14.222222222222223)"/></g><path d="M1442.5 1842.74h11m11 0h11l.94.07.9.23.88.36.8.48.72.6.6.73.5.8.37.88.23.92.07.94v9.32m0 9.32V1886m0 9.33v9.32l-.07.94-.22.9-.35.87-.5.8-.6.72-.72.6-.8.5-.88.36-.9.22-.95.07h-11.83m-11.84 0H1440" stroke="#3a414a" stroke-width="2" fill="none"/><path d="M1442.53 1843.74h-1.03v-2h1.03z" stroke="#3a414a" stroke-width=".05" fill="#3a414a"/><path d="M1424.74 1910.65L1439 1906v9.3z" stroke="#3a414a" stroke-width="2" fill="#3a414a"/><defs><path fill="#3a414a" d="M205 0l-28-72H64L36 0H1l101-248h38L239 0h-34zm-38-99l-47-123c-12 45-31 82-46 123h93" id="H"/><path fill="#3a414a" d="M24 0v-261h32V0H24" id="I"/><path fill="#3a414a" d="M59-47c-2 24 18 29 38 22v24C64 9 27 4 27-40v-127H5v-23h24l9-43h21v43h35v23H59v120" id="J"/><g id="a"><use transform="matrix(0.06172839506172839,0,0,0.06172839506172839,0,0)" xlink:href="#H"/><use transform="matrix(0.06172839506172839,0,0,0.06172839506172839,14.814814814814813,0)" xlink:href="#I"/><use transform="matrix(0.06172839506172839,0,0,0.06172839506172839,19.691358024691354,0)" xlink:href="#J"/></g><path fill="#3a414a" d="M26 75v-336h71v23H56V52h41v23H26" id="K"/><path fill="#3a414a" d="M115-194c55 1 70 41 70 98S169 2 115 4C84 4 66-9 55-30l1 105H24l-1-265h31l2 30c10-21 28-34 59-34zm-8 174c40 0 45-34 45-75s-6-73-45-74c-42 0-51 32-51 76 0 43 10 73 51 73" id="L"/><path fill="#3a414a" d="M114-163C36-179 61-72 57 0H25l-1-190h30c1 12-1 29 2 39 6-27 23-49 58-41v29" id="M"/><path fill="#3a414a" d="M100-194c62-1 85 37 85 99 1 63-27 99-86 99S16-35 15-95c0-66 28-99 85-99zM99-20c44 1 53-31 53-75 0-43-8-75-51-75s-53 32-53 75 10 74 51 75" id="N"/><path fill="#3a414a" d="M177-190C167-65 218 103 67 71c-23-6-38-20-44-43l32-5c15 47 100 32 89-28v-30C133-14 115 1 83 1 29 1 15-40 15-95c0-56 16-97 71-98 29-1 48 16 59 35 1-10 0-23 2-32h30zM94-22c36 0 50-32 50-73 0-42-14-75-50-75-39 0-46 34-46 75s6 73 46 73" id="O"/><path fill="#3a414a" d="M100-194c63 0 86 42 84 106H49c0 40 14 67 53 68 26 1 43-12 49-29l28 8c-11 28-37 45-77 45C44 4 14-33 15-96c1-61 26-98 85-98zm52 81c6-60-76-77-97-28-3 7-6 17-6 28h103" id="P"/><path fill="#3a414a" d="M135-143c-3-34-86-38-87 0 15 53 115 12 119 90S17 21 10-45l28-5c4 36 97 45 98 0-10-56-113-15-118-90-4-57 82-63 122-42 12 7 21 19 24 35" id="Q"/><g id="b"><use transform="matrix(0.06172839506172839,0,0,0.06172839506172839,0,0)" xlink:href="#K"/><use transform="matrix(0.06172839506172839,0,0,0.06172839506172839,6.172839506172839,0)" xlink:href="#L"/><use transform="matrix(0.06172839506172839,0,0,0.06172839506172839,18.51851851851852,0)" xlink:href="#M"/><use transform="matrix(0.06172839506172839,0,0,0.06172839506172839,25.864197530864196,0)" xlink:href="#N"/><use transform="matrix(0.06172839506172839,0,0,0.06172839506172839,38.20987654320987,0)" xlink:href="#O"/><use transform="matrix(0.06172839506172839,0,0,0.06172839506172839,50.55555555555555,0)" xlink:href="#M"/><use transform="matrix(0.06172839506172839,0,0,0.06172839506172839,57.90123456790123,0)" xlink:href="#P"/><use transform="matrix(0.06172839506172839,0,0,0.06172839506172839,70.24691358024691,0)" xlink:href="#Q"/><use transform="matrix(0.06172839506172839,0,0,0.06172839506172839,81.35802469135803,0)" xlink:href="#Q"/></g><path fill="#3a414a" d="M18-150v-26h174v26H18zm0 90v-26h174v26H18" id="R"/><use transform="matrix(0.06172839506172839,0,0,0.06172839506172839,0,0)" xlink:href="#R" id="c"/><path fill="#3a414a" d="M117-194c89-4 53 116 60 194h-32v-121c0-31-8-49-39-48C34-167 62-67 57 0H25l-1-190h30c1 10-1 24 2 32 11-22 29-35 61-36" id="S"/><path fill="#3a414a" d="M84 4C-5 8 30-112 23-190h32v120c0 31 7 50 39 49 72-2 45-101 50-169h31l1 190h-30c-1-10 1-25-2-33-11 22-28 36-60 37" id="T"/><path fill="#3a414a" d="M3 75V52h41v-290H3v-23h71V75H3" id="U"/><g id="d"><use transform="matrix(0.06172839506172839,0,0,0.06172839506172839,0,0)" xlink:href="#S"/><use transform="matrix(0.06172839506172839,0,0,0.06172839506172839,12.345679012345679,0)" xlink:href="#T"/><use transform="matrix(0.06172839506172839,0,0,0.06172839506172839,24.691358024691358,0)" xlink:href="#I"/><use transform="matrix(0.06172839506172839,0,0,0.06172839506172839,29.5679012345679,0)" xlink:href="#I"/><use transform="matrix(0.06172839506172839,0,0,0.06172839506172839,34.44444444444444,0)" xlink:href="#U"/></g><path fill="#3a414a" d="M85-194c31 0 48 13 60 33l-1-100h32l1 261h-30c-2-10 0-23-3-31C134-8 116 4 85 4 32 4 16-35 15-94c0-66 23-100 70-100zm9 24c-40 0-46 34-46 75 0 40 6 74 45 74 42 0 51-32 51-76 0-42-9-74-50-73" id="V"/><g id="e"><use transform="matrix(0.06172839506172839,0,0,0.06172839506172839,0,0)" xlink:href="#Q"/><use transform="matrix(0.06172839506172839,0,0,0.06172839506172839,11.11111111111111,0)" xlink:href="#V"/></g><path fill="#3a414a" d="M30 0v-248h33v221h125V0H30" id="W"/><g id="f"><use transform="matrix(0.06172839506172839,0,0,0.06172839506172839,0,0)" xlink:href="#W"/><use transform="matrix(0.06172839506172839,0,0,0.06172839506172839,12.345679012345679,0)" xlink:href="#N"/><use transform="matrix(0.06172839506172839,0,0,0.06172839506172839,24.691358024691358,0)" xlink:href="#O"/></g><path fill="#3a414a" d="M141-36C126-15 110 5 73 4 37 3 15-17 15-53c-1-64 63-63 125-63 3-35-9-54-41-54-24 1-41 7-42 31l-33-3c5-37 33-52 76-52 45 0 72 20 72 64v82c-1 20 7 32 28 27v20c-31 9-61-2-59-35zM48-53c0 20 12 33 32 33 41-3 63-29 60-74-43 2-92-5-92 41" id="X"/><g id="g"><use transform="matrix(0.06172839506172839,0,0,0.06172839506172839,0,0)" xlink:href="#X"/><use transform="matrix(0.06172839506172839,0,0,0.06172839506172839,12.345679012345679,0)" xlink:href="#S"/></g><g id="h"><use transform="matrix(0.06172839506172839,0,0,0.06172839506172839,0,0)" xlink:href="#T"/><use transform="matrix(0.06172839506172839,0,0,0.06172839506172839,12.345679012345679,0)" xlink:href="#L"/><use transform="matrix(0.06172839506172839,0,0,0.06172839506172839,24.691358024691358,0)" xlink:href="#V"/><use transform="matrix(0.06172839506172839,0,0,0.06172839506172839,37.03703703703704,0)" xlink:href="#X"/><use transform="matrix(0.06172839506172839,0,0,0.06172839506172839,49.382716049382715,0)" xlink:href="#J"/><use transform="matrix(0.06172839506172839,0,0,0.06172839506172839,55.55555555555556,0)" xlink:href="#P"/></g><path fill="#3a414a" d="M127-220V0H93v-220H8v-28h204v28h-85" id="Y"/><path fill="#3a414a" d="M96-169c-40 0-48 33-48 73s9 75 48 75c24 0 41-14 43-38l32 2c-6 37-31 61-74 61-59 0-76-41-82-99-10-93 101-131 147-64 4 7 5 14 7 22l-32 3c-4-21-16-35-41-35" id="Z"/><path fill="#3a414a" d="M106-169C34-169 62-67 57 0H25v-261h32l-1 103c12-21 28-36 61-36 89 0 53 116 60 194h-32v-121c2-32-8-49-39-48" id="aa"/><path fill="#3a414a" d="M24-231v-30h32v30H24zM24 0v-190h32V0H24" id="ab"/><g id="i"><use transform="matrix(0.06172839506172839,0,0,0.06172839506172839,0,0)" xlink:href="#Y"/><use transform="matrix(0.06172839506172839,0,0,0.06172839506172839,11.049382716049381,0)" xlink:href="#P"/><use transform="matrix(0.06172839506172839,0,0,0.06172839506172839,23.39506172839506,0)" xlink:href="#Z"/><use transform="matrix(0.06172839506172839,0,0,0.06172839506172839,34.50617283950617,0)" xlink:href="#aa"/><use transform="matrix(0.06172839506172839,0,0,0.06172839506172839,46.85185185185185,0)" xlink:href="#S"/><use transform="matrix(0.06172839506172839,0,0,0.06172839506172839,59.197530864197525,0)" xlink:href="#ab"/><use transform="matrix(0.06172839506172839,0,0,0.06172839506172839,64.07407407407406,0)" xlink:href="#Z"/><use transform="matrix(0.06172839506172839,0,0,0.06172839506172839,75.18518518518518,0)" xlink:href="#ab"/><use transform="matrix(0.06172839506172839,0,0,0.06172839506172839,80.06172839506172,0)" xlink:href="#X"/><use transform="matrix(0.06172839506172839,0,0,0.06172839506172839,92.4074074074074,0)" xlink:href="#S"/></g><path fill="#3a414a" d="M33-154v-36h34v36H33zM33 0v-36h34V0H33" id="ac"/><path fill="#3a414a" d="M232-93c-1 65-40 97-104 97C67 4 28-28 28-90v-158h33c8 89-33 224 67 224 102 0 64-133 71-224h33v155" id="ad"/><g id="j"><use transform="matrix(0.06172839506172839,0,0,0.06172839506172839,0,0)" xlink:href="#ac"/><use transform="matrix(0.06172839506172839,0,0,0.06172839506172839,6.172839506172839,0)" xlink:href="#W"/><use transform="matrix(0.06172839506172839,0,0,0.06172839506172839,18.51851851851852,0)" xlink:href="#N"/><use transform="matrix(0.06172839506172839,0,0,0.06172839506172839,30.864197530864196,0)" xlink:href="#O"/><use transform="matrix(0.06172839506172839,0,0,0.06172839506172839,43.20987654320987,0)" xlink:href="#ad"/><use transform="matrix(0.06172839506172839,0,0,0.06172839506172839,59.197530864197525,0)" xlink:href="#L"/><use transform="matrix(0.06172839506172839,0,0,0.06172839506172839,71.5432098765432,0)" xlink:href="#V"/><use transform="matrix(0.06172839506172839,0,0,0.06172839506172839,83.88888888888889,0)" xlink:href="#X"/><use transform="matrix(0.06172839506172839,0,0,0.06172839506172839,96.23456790123457,0)" xlink:href="#J"/><use transform="matrix(0.06172839506172839,0,0,0.06172839506172839,102.4074074074074,0)" xlink:href="#P"/></g><path fill="#333" d="M67-125c0 53 21 87 73 88 37 1 54-22 65-47l45 17C233-25 199 4 140 4 58 4 20-42 15-125 8-235 124-281 211-232c18 10 29 29 36 50l-46 12c-8-25-30-41-62-41-52 0-71 34-72 86" id="ae"/><path fill="#333" d="M25 0v-261h50V0H25" id="af"/><path fill="#333" d="M25-224v-37h50v37H25zM25 0v-190h50V0H25" id="ag"/><path fill="#333" d="M190-63c-7 42-38 67-86 67-59 0-84-38-90-98-12-110 154-137 174-36l-49 2c-2-19-15-32-35-32-30 0-35 28-38 64-6 74 65 87 74 30" id="ah"/><path fill="#333" d="M147 0L96-86 75-71V0H25v-261h50v150l67-79h53l-66 74L201 0h-54" id="ai"/><g id="k"><use transform="matrix(0.04938271604938272,0,0,0.04938271604938272,0,0)" xlink:href="#ae"/><use transform="matrix(0.04938271604938272,0,0,0.04938271604938272,12.790123456790125,0)" xlink:href="#af"/><use transform="matrix(0.04938271604938272,0,0,0.04938271604938272,17.7283950617284,0)" xlink:href="#ag"/><use transform="matrix(0.04938271604938272,0,0,0.04938271604938272,22.66666666666667,0)" xlink:href="#ah"/><use transform="matrix(0.04938271604938272,0,0,0.04938271604938272,32.543209876543216,0)" xlink:href="#ai"/></g><path fill="#333" d="M110-194c64 0 96 36 96 99 0 64-35 99-97 99-61 0-95-36-95-99 0-62 34-99 96-99zm-1 164c35 0 45-28 45-65 0-40-10-65-43-65-34 0-45 26-45 65 0 36 10 65 43 65" id="aj"/><path fill="#333" d="M195-6C206 82 75 100 31 46c-4-6-6-13-8-21l49-6c3 16 16 24 34 25 40 0 42-37 40-79-11 22-30 35-61 35-53 0-70-43-70-97 0-56 18-96 73-97 30 0 46 14 59 34l2-30h47zm-90-29c32 0 41-27 41-63 0-35-9-62-40-62-32 0-39 29-40 63 0 36 9 62 39 62" id="ak"/><g id="l"><use transform="matrix(0.04938271604938272,0,0,0.04938271604938272,0,0)" xlink:href="#af"/><use transform="matrix(0.04938271604938272,0,0,0.04938271604938272,4.938271604938272,0)" xlink:href="#aj"/><use transform="matrix(0.04938271604938272,0,0,0.04938271604938272,15.753086419753087,0)" xlink:href="#ak"/></g><path fill="#333" d="M85 4C-2 5 27-109 22-190h50c7 57-23 150 33 157 60-5 35-97 40-157h50l1 190h-47c-2-12 1-28-3-38-12 25-28 42-61 42" id="al"/><path fill="#333" d="M135-194c53 0 70 44 70 98 0 56-19 98-73 100-31 1-45-17-59-34 3 33 2 69 2 105H25l-1-265h48c2 10 0 23 3 31 11-24 29-35 60-35zM114-30c33 0 39-31 40-66 0-38-9-64-40-64-56 0-55 130 0 130" id="am"/><path fill="#333" d="M88-194c31-1 46 15 58 34l-1-101h50l1 261h-48c-2-10 0-23-3-31C134-8 116 4 84 4 32 4 16-41 15-95c0-56 19-97 73-99zm17 164c33 0 40-30 41-66 1-37-9-64-41-64s-38 30-39 65c0 43 13 65 39 65" id="an"/><path fill="#333" d="M133-34C117-15 103 5 69 4 32 3 11-16 11-54c-1-60 55-63 116-61 1-26-3-47-28-47-18 1-26 9-28 27l-52-2c7-38 36-58 82-57s74 22 75 68l1 82c-1 14 12 18 25 15v27c-30 8-71 5-69-32zm-48 3c29 0 43-24 42-57-32 0-66-3-65 30 0 17 8 27 23 27" id="ao"/><path fill="#333" d="M115-3C79 11 28 4 28-45v-112H4v-33h27l15-45h31v45h36v33H77v99c-1 23 16 31 38 25v30" id="ap"/><path fill="#333" d="M185-48c-13 30-37 53-82 52C43 2 14-33 14-96s30-98 90-98c62 0 83 45 84 108H66c0 31 8 55 39 56 18 0 30-7 34-22zm-45-69c5-46-57-63-70-21-2 6-4 13-4 21h74" id="aq"/><g id="m"><use transform="matrix(0.04938271604938272,0,0,0.04938271604938272,0,0)" xlink:href="#al"/><use transform="matrix(0.04938271604938272,0,0,0.04938271604938272,10.814814814814815,0)" xlink:href="#am"/><use transform="matrix(0.04938271604938272,0,0,0.04938271604938272,21.62962962962963,0)" xlink:href="#an"/><use transform="matrix(0.04938271604938272,0,0,0.04938271604938272,32.44444444444444,0)" xlink:href="#ao"/><use transform="matrix(0.04938271604938272,0,0,0.04938271604938272,42.32098765432099,0)" xlink:href="#ap"/><use transform="matrix(0.04938271604938272,0,0,0.04938271604938272,48.19753086419753,0)" xlink:href="#aq"/></g><path fill="#333" d="M135-194c52 0 70 43 70 98 0 56-19 99-73 100-30 1-46-15-58-35L72 0H24l1-261h50v104c11-23 29-37 60-37zM114-30c31 0 40-27 40-66 0-37-7-63-39-63s-41 28-41 65c0 36 8 64 40 64" id="ar"/><path fill="#333" d="M135-194c87-1 58 113 63 194h-50c-7-57 23-157-34-157-59 0-34 97-39 157H25l-1-190h47c2 12-1 28 3 38 12-26 28-41 61-42" id="as"/><g id="n"><use transform="matrix(0.04938271604938272,0,0,0.04938271604938272,0,0)" xlink:href="#ar"/><use transform="matrix(0.04938271604938272,0,0,0.04938271604938272,10.814814814814815,0)" xlink:href="#al"/><use transform="matrix(0.04938271604938272,0,0,0.04938271604938272,21.62962962962963,0)" xlink:href="#ap"/><use transform="matrix(0.04938271604938272,0,0,0.04938271604938272,27.506172839506174,0)" xlink:href="#ap"/><use transform="matrix(0.04938271604938272,0,0,0.04938271604938272,33.382716049382715,0)" xlink:href="#aj"/><use transform="matrix(0.04938271604938272,0,0,0.04938271604938272,44.19753086419753,0)" xlink:href="#as"/></g><path d="M84 4C-5 8 30-112 23-190h32v120c0 31 7 50 39 49 72-2 45-101 50-169h31l1 190h-30c-1-10 1-25-2-33-11 22-28 36-60 37" id="at"/><path d="M115-194c55 1 70 41 70 98S169 2 115 4C84 4 66-9 55-30l1 105H24l-1-265h31l2 30c10-21 28-34 59-34zm-8 174c40 0 45-34 45-75s-6-73-45-74c-42 0-51 32-51 76 0 43 10 73 51 73" id="au"/><path d="M85-194c31 0 48 13 60 33l-1-100h32l1 261h-30c-2-10 0-23-3-31C134-8 116 4 85 4 32 4 16-35 15-94c0-66 23-100 70-100zm9 24c-40 0-46 34-46 75 0 40 6 74 45 74 42 0 51-32 51-76 0-42-9-74-50-73" id="av"/><path d="M141-36C126-15 110 5 73 4 37 3 15-17 15-53c-1-64 63-63 125-63 3-35-9-54-41-54-24 1-41 7-42 31l-33-3c5-37 33-52 76-52 45 0 72 20 72 64v82c-1 20 7 32 28 27v20c-31 9-61-2-59-35zM48-53c0 20 12 33 32 33 41-3 63-29 60-74-43 2-92-5-92 41" id="aw"/><path d="M59-47c-2 24 18 29 38 22v24C64 9 27 4 27-40v-127H5v-23h24l9-43h21v43h35v23H59v120" id="ax"/><path d="M100-194c63 0 86 42 84 106H49c0 40 14 67 53 68 26 1 43-12 49-29l28 8c-11 28-37 45-77 45C44 4 14-33 15-96c1-61 26-98 85-98zm52 81c6-60-76-77-97-28-3 7-6 17-6 28h103" id="ay"/><path d="M33-154v-36h34v36H33zM33 0v-36h34V0H33" id="az"/><path d="M30-248c87 1 191-15 191 75 0 78-77 80-158 76V0H30v-248zm33 125c57 0 124 11 124-50 0-59-68-47-124-48v98" id="aA"/><path d="M114-163C36-179 61-72 57 0H25l-1-190h30c1 12-1 29 2 39 6-27 23-49 58-41v29" id="aB"/><path d="M100-194c62-1 85 37 85 99 1 63-27 99-86 99S16-35 15-95c0-66 28-99 85-99zM99-20c44 1 53-31 53-75 0-43-8-75-51-75s-53 32-53 75 10 74 51 75" id="aC"/><path d="M177-190C167-65 218 103 67 71c-23-6-38-20-44-43l32-5c15 47 100 32 89-28v-30C133-14 115 1 83 1 29 1 15-40 15-95c0-56 16-97 71-98 29-1 48 16 59 35 1-10 0-23 2-32h30zM94-22c36 0 50-32 50-73 0-42-14-75-50-75-39 0-46 34-46 75s6 73 46 73" id="aD"/><path d="M135-143c-3-34-86-38-87 0 15 53 115 12 119 90S17 21 10-45l28-5c4 36 97 45 98 0-10-56-113-15-118-90-4-57 82-63 122-42 12 7 21 19 24 35" id="aE"/><g id="o"><use transform="matrix(0.05,0,0,0.05,0,0)" xlink:href="#at"/><use transform="matrix(0.05,0,0,0.05,10,0)" xlink:href="#au"/><use transform="matrix(0.05,0,0,0.05,20,0)" xlink:href="#av"/><use transform="matrix(0.05,0,0,0.05,30,0)" xlink:href="#aw"/><use transform="matrix(0.05,0,0,0.05,40,0)" xlink:href="#ax"/><use transform="matrix(0.05,0,0,0.05,45,0)" xlink:href="#ay"/><use transform="matrix(0.05,0,0,0.05,55,0)" xlink:href="#az"/><use transform="matrix(0.05,0,0,0.05,60,0)" xlink:href="#aA"/><use transform="matrix(0.05,0,0,0.05,72,0)" xlink:href="#aB"/><use transform="matrix(0.05,0,0,0.05,77.95,0)" xlink:href="#aC"/><use transform="matrix(0.05,0,0,0.05,87.95,0)" xlink:href="#aD"/><use transform="matrix(0.05,0,0,0.05,97.95,0)" xlink:href="#aB"/><use transform="matrix(0.05,0,0,0.05,103.9,0)" xlink:href="#ay"/><use transform="matrix(0.05,0,0,0.05,113.9,0)" xlink:href="#aE"/><use transform="matrix(0.05,0,0,0.05,122.9,0)" xlink:href="#aE"/></g><path d="M30 0v-248h33v221h125V0H30" id="aF"/><path d="M87 75C49 33 22-17 22-94c0-76 28-126 65-167h31c-38 41-64 92-64 168S80 34 118 75H87" id="aG"/><path d="M68-38c1 34 0 65-14 84H32c9-13 17-26 17-46H33v-38h35" id="aH"/><path d="M210-169c-67 3-38 105-44 169h-31v-121c0-29-5-50-35-48C34-165 62-65 56 0H25l-1-190h30c1 10-1 24 2 32 10-44 99-50 107 0 11-21 27-35 58-36 85-2 47 119 55 194h-31v-121c0-29-5-49-35-48" id="aI"/><path d="M33-261c38 41 65 92 65 168S71 34 33 75H2C39 34 66-17 66-93S39-220 2-261h31" id="aJ"/><g id="p"><use transform="matrix(0.04740740740740742,0,0,0.04740740740740742,0,0)" xlink:href="#aF"/><use transform="matrix(0.04740740740740742,0,0,0.04740740740740742,9.481481481481485,0)" xlink:href="#aC"/><use transform="matrix(0.04740740740740742,0,0,0.04740740740740742,18.96296296296297,0)" xlink:href="#aD"/><use transform="matrix(0.04740740740740742,0,0,0.04740740740740742,28.44444444444445,0)" xlink:href="#aA"/><use transform="matrix(0.04740740740740742,0,0,0.04740740740740742,39.82222222222224,0)" xlink:href="#aB"/><use transform="matrix(0.04740740740740742,0,0,0.04740740740740742,45.46370370370372,0)" xlink:href="#aC"/><use transform="matrix(0.04740740740740742,0,0,0.04740740740740742,54.94518518518521,0)" xlink:href="#aD"/><use transform="matrix(0.04740740740740742,0,0,0.04740740740740742,64.42666666666669,0)" xlink:href="#aB"/><use transform="matrix(0.04740740740740742,0,0,0.04740740740740742,70.06814814814817,0)" xlink:href="#ay"/><use transform="matrix(0.04740740740740742,0,0,0.04740740740740742,79.54962962962965,0)" xlink:href="#aE"/><use transform="matrix(0.04740740740740742,0,0,0.04740740740740742,88.08296296296298,0)" xlink:href="#aE"/><use transform="matrix(0.04740740740740742,0,0,0.04740740740740742,96.61629629629631,0)" xlink:href="#aG"/><use transform="matrix(0.04740740740740742,0,0,0.04740740740740742,102.25777777777778,0)" xlink:href="#av"/><use transform="matrix(0.04740740740740742,0,0,0.04740740740740742,111.73925925925927,0)" xlink:href="#aw"/><use transform="matrix(0.04740740740740742,0,0,0.04740740740740742,121.22074074074075,0)" xlink:href="#ax"/><use transform="matrix(0.04740740740740742,0,0,0.04740740740740742,125.96148148148148,0)" xlink:href="#ay"/><use transform="matrix(0.04740740740740742,0,0,0.04740740740740742,135.44296296296298,0)" xlink:href="#aH"/><use transform="matrix(0.04740740740740742,0,0,0.04740740740740742,140.1837037037037,0)" xlink:href="#aI"/><use transform="matrix(0.04740740740740742,0,0,0.04740740740740742,154.35851851851854,0)" xlink:href="#ay"/><use transform="matrix(0.04740740740740742,0,0,0.04740740740740742,163.84000000000003,0)" xlink:href="#aE"/><use transform="matrix(0.04740740740740742,0,0,0.04740740740740742,172.37333333333336,0)" xlink:href="#aE"/><use transform="matrix(0.04740740740740742,0,0,0.04740740740740742,180.9066666666667,0)" xlink:href="#aw"/><use transform="matrix(0.04740740740740742,0,0,0.04740740740740742,190.3881481481482,0)" xlink:href="#aD"/><use transform="matrix(0.04740740740740742,0,0,0.04740740740740742,199.86962962962969,0)" xlink:href="#ay"/><use transform="matrix(0.04740740740740742,0,0,0.04740740740740742,209.35111111111115,0)" xlink:href="#aJ"/></g><path fill="#3a414a" d="M30-248c87 1 191-15 191 75 0 78-77 80-158 76V0H30v-248zm33 125c57 0 124 11 124-50 0-59-68-47-124-48v98" id="aK"/><path fill="#3a414a" d="M212-179c-10-28-35-45-73-45-59 0-87 40-87 99 0 60 29 101 89 101 43 0 62-24 78-52l27 14C228-24 195 4 139 4 59 4 22-46 18-125c-6-104 99-153 187-111 19 9 31 26 39 46" id="aL"/><g id="q"><use transform="matrix(0.06172839506172839,0,0,0.06172839506172839,0,0)" xlink:href="#ac"/><use transform="matrix(0.06172839506172839,0,0,0.06172839506172839,6.172839506172839,0)" xlink:href="#aK"/><use transform="matrix(0.06172839506172839,0,0,0.06172839506172839,20.98765432098765,0)" xlink:href="#M"/><use transform="matrix(0.06172839506172839,0,0,0.06172839506172839,28.33333333333333,0)" xlink:href="#N"/><use transform="matrix(0.06172839506172839,0,0,0.06172839506172839,40.679012345679006,0)" xlink:href="#O"/><use transform="matrix(0.06172839506172839,0,0,0.06172839506172839,53.02469135802468,0)" xlink:href="#M"/><use transform="matrix(0.06172839506172839,0,0,0.06172839506172839,60.37037037037036,0)" xlink:href="#P"/><use transform="matrix(0.06172839506172839,0,0,0.06172839506172839,72.71604938271604,0)" xlink:href="#Q"/><use transform="matrix(0.06172839506172839,0,0,0.06172839506172839,83.82716049382715,0)" xlink:href="#Q"/><use transform="matrix(0.06172839506172839,0,0,0.06172839506172839,94.93827160493827,0)" xlink:href="#aL"/><use transform="matrix(0.06172839506172839,0,0,0.06172839506172839,110.92592592592592,0)" xlink:href="#N"/><use transform="matrix(0.06172839506172839,0,0,0.06172839506172839,123.27160493827161,0)" xlink:href="#S"/><use transform="matrix(0.06172839506172839,0,0,0.06172839506172839,135.6172839506173,0)" xlink:href="#J"/><use transform="matrix(0.06172839506172839,0,0,0.06172839506172839,141.79012345679013,0)" xlink:href="#M"/><use transform="matrix(0.06172839506172839,0,0,0.06172839506172839,149.1358024691358,0)" xlink:href="#N"/><use transform="matrix(0.06172839506172839,0,0,0.06172839506172839,161.48148148148147,0)" xlink:href="#I"/><use transform="matrix(0.06172839506172839,0,0,0.06172839506172839,166.358024691358,0)" xlink:href="#I"/><use transform="matrix(0.06172839506172839,0,0,0.06172839506172839,171.23456790123453,0)" xlink:href="#P"/><use transform="matrix(0.06172839506172839,0,0,0.06172839506172839,183.5802469135802,0)" xlink:href="#M"/></g><g id="s"><use transform="matrix(0.05925925925925927,0,0,0.05925925925925927,0,0)" xlink:href="#aA"/><use transform="matrix(0.05925925925925927,0,0,0.05925925925925927,14.222222222222225,0)" xlink:href="#aB"/><use transform="matrix(0.05925925925925927,0,0,0.05925925925925927,21.27407407407408,0)" xlink:href="#aC"/><use transform="matrix(0.05925925925925927,0,0,0.05925925925925927,33.125925925925934,0)" xlink:href="#aD"/><use transform="matrix(0.05925925925925927,0,0,0.05925925925925927,44.97777777777779,0)" xlink:href="#aB"/><use transform="matrix(0.05925925925925927,0,0,0.05925925925925927,52.02962962962964,0)" xlink:href="#ay"/><use transform="matrix(0.05925925925925927,0,0,0.05925925925925927,63.881481481481494,0)" xlink:href="#aE"/><use transform="matrix(0.05925925925925927,0,0,0.05925925925925927,74.54814814814816,0)" xlink:href="#aE"/><use transform="matrix(0.05925925925925927,0,0,0.05925925925925927,85.21481481481483,0)" xlink:href="#aG"/><use transform="matrix(0.05925925925925927,0,0,0.05925925925925927,92.26666666666668,0)" xlink:href="#aJ"/></g><g id="t"><use transform="matrix(0.04740740740740742,0,0,0.04740740740740742,0,0)" xlink:href="#aA"/><use transform="matrix(0.04740740740740742,0,0,0.04740740740740742,11.37777777777778,0)" xlink:href="#aC"/><use transform="matrix(0.04740740740740742,0,0,0.04740740740740742,20.859259259259264,0)" xlink:href="#aE"/><use transform="matrix(0.04740740740740742,0,0,0.04740740740740742,29.3925925925926,0)" xlink:href="#ax"/><use transform="matrix(0.04740740740740742,0,0,0.04740740740740742,34.13333333333334,0)" xlink:href="#aA"/><use transform="matrix(0.04740740740740742,0,0,0.04740740740740742,45.51111111111112,0)" xlink:href="#aB"/><use transform="matrix(0.04740740740740742,0,0,0.04740740740740742,51.152592592592605,0)" xlink:href="#aC"/><use transform="matrix(0.04740740740740742,0,0,0.04740740740740742,60.634074074074086,0)" xlink:href="#aD"/><use transform="matrix(0.04740740740740742,0,0,0.04740740740740742,70.11555555555557,0)" xlink:href="#aB"/><use transform="matrix(0.04740740740740742,0,0,0.04740740740740742,75.75703703703705,0)" xlink:href="#ay"/><use transform="matrix(0.04740740740740742,0,0,0.04740740740740742,85.23851851851853,0)" xlink:href="#aE"/><use transform="matrix(0.04740740740740742,0,0,0.04740740740740742,93.77185185185186,0)" xlink:href="#aE"/><use transform="matrix(0.04740740740740742,0,0,0.04740740740740742,102.3051851851852,0)" xlink:href="#aG"/><use transform="matrix(0.04740740740740742,0,0,0.04740740740740742,107.94666666666667,0)" xlink:href="#av"/><use transform="matrix(0.04740740740740742,0,0,0.04740740740740742,117.42814814814815,0)" xlink:href="#aw"/><use transform="matrix(0.04740740740740742,0,0,0.04740740740740742,126.90962962962963,0)" xlink:href="#ax"/><use transform="matrix(0.04740740740740742,0,0,0.04740740740740742,131.65037037037038,0)" xlink:href="#ay"/><use transform="matrix(0.04740740740740742,0,0,0.04740740740740742,141.13185185185188,0)" xlink:href="#aH"/><use transform="matrix(0.04740740740740742,0,0,0.04740740740740742,145.8725925925926,0)" xlink:href="#aI"/><use transform="matrix(0.04740740740740742,0,0,0.04740740740740742,160.04740740740743,0)" xlink:href="#ay"/><use transform="matrix(0.04740740740740742,0,0,0.04740740740740742,169.52888888888893,0)" xlink:href="#aE"/><use transform="matrix(0.04740740740740742,0,0,0.04740740740740742,178.06222222222226,0)" xlink:href="#aE"/><use transform="matrix(0.04740740740740742,0,0,0.04740740740740742,186.5955555555556,0)" xlink:href="#aw"/><use transform="matrix(0.04740740740740742,0,0,0.04740740740740742,196.0770370370371,0)" xlink:href="#aD"/><use transform="matrix(0.04740740740740742,0,0,0.04740740740740742,205.55851851851858,0)" xlink:href="#ay"/><use transform="matrix(0.04740740740740742,0,0,0.04740740740740742,215.0400000000001,0)" xlink:href="#aJ"/></g><path fill="#3a414a" d="M30-248c118-7 216 8 213 122C240-48 200 0 122 0H30v-248zM63-27c89 8 146-16 146-99s-60-101-146-95v194" id="aM"/><path fill="#3a414a" d="M115-194c53 0 69 39 70 98 0 66-23 100-70 100C84 3 66-7 56-30L54 0H23l1-261h32v101c10-23 28-34 59-34zm-8 174c40 0 45-34 45-75 0-40-5-75-45-74-42 0-51 32-51 76 0 43 10 73 51 73" id="aN"/><path fill="#3a414a" d="M33 0v-248h34V0H33" id="aO"/><path fill="#3a414a" d="M101-234c-31-9-42 10-38 44h38v23H63V0H32v-167H5v-23h27c-7-52 17-82 69-68v24" id="aP"/><g id="u"><use transform="matrix(0.06172839506172839,0,0,0.06172839506172839,0,0)" xlink:href="#ac"/><use transform="matrix(0.06172839506172839,0,0,0.06172839506172839,6.172839506172839,0)" xlink:href="#aM"/><use transform="matrix(0.06172839506172839,0,0,0.06172839506172839,22.160493827160494,0)" xlink:href="#X"/><use transform="matrix(0.06172839506172839,0,0,0.06172839506172839,34.50617283950617,0)" xlink:href="#J"/><use transform="matrix(0.06172839506172839,0,0,0.06172839506172839,40.67901234567901,0)" xlink:href="#X"/><use transform="matrix(0.06172839506172839,0,0,0.06172839506172839,53.02469135802469,0)" xlink:href="#aN"/><use transform="matrix(0.06172839506172839,0,0,0.06172839506172839,65.37037037037037,0)" xlink:href="#X"/><use transform="matrix(0.06172839506172839,0,0,0.06172839506172839,77.71604938271605,0)" xlink:href="#Q"/><use transform="matrix(0.06172839506172839,0,0,0.06172839506172839,88.82716049382717,0)" xlink:href="#P"/><use transform="matrix(0.06172839506172839,0,0,0.06172839506172839,101.17283950617285,0)" xlink:href="#aO"/><use transform="matrix(0.06172839506172839,0,0,0.06172839506172839,107.34567901234568,0)" xlink:href="#S"/><use transform="matrix(0.06172839506172839,0,0,0.06172839506172839,119.69135802469137,0)" xlink:href="#J"/><use transform="matrix(0.06172839506172839,0,0,0.06172839506172839,125.8641975308642,0)" xlink:href="#P"/><use transform="matrix(0.06172839506172839,0,0,0.06172839506172839,138.20987654320987,0)" xlink:href="#M"/><use transform="matrix(0.06172839506172839,0,0,0.06172839506172839,145.55555555555554,0)" xlink:href="#aP"/><use transform="matrix(0.06172839506172839,0,0,0.06172839506172839,151.72839506172838,0)" xlink:href="#X"/><use transform="matrix(0.06172839506172839,0,0,0.06172839506172839,164.07407407407405,0)" xlink:href="#Z"/><use transform="matrix(0.06172839506172839,0,0,0.06172839506172839,175.18518518518516,0)" xlink:href="#P"/></g><path fill="#333" d="M67-125c0 54 23 88 75 88 28 0 53-7 68-21v-34h-60v-39h108v91C232-14 192 4 140 4 58 4 20-42 15-125 8-236 126-280 215-234c19 10 29 26 37 47l-47 15c-11-23-29-39-63-39-53 1-75 33-75 86" id="aQ"/><path fill="#333" d="M24-248c93 1 206-16 204 79-1 75-69 88-152 82V0H24v-248zm52 121c47 0 100 7 100-41 0-47-54-39-100-39v80" id="aR"/><path fill="#333" d="M135-150c-39-12-60 13-60 57V0H25l-1-190h47c2 13-1 29 3 40 6-28 27-53 61-41v41" id="aS"/><path fill="#333" d="M137-138c1-29-70-34-71-4 15 46 118 7 119 86 1 83-164 76-172 9l43-7c4 19 20 25 44 25 33 8 57-30 24-41C81-84 22-81 20-136c-2-80 154-74 161-7" id="aT"/><g id="v"><use transform="matrix(0.04938271604938272,0,0,0.04938271604938272,0,0)" xlink:href="#aQ"/><use transform="matrix(0.04938271604938272,0,0,0.04938271604938272,13.827160493827162,0)" xlink:href="#aq"/><use transform="matrix(0.04938271604938272,0,0,0.04938271604938272,23.703703703703706,0)" xlink:href="#ap"/><use transform="matrix(0.04938271604938272,0,0,0.04938271604938272,29.58024691358025,0)" xlink:href="#aR"/><use transform="matrix(0.04938271604938272,0,0,0.04938271604938272,41.4320987654321,0)" xlink:href="#aS"/><use transform="matrix(0.04938271604938272,0,0,0.04938271604938272,48.345679012345684,0)" xlink:href="#aj"/><use transform="matrix(0.04938271604938272,0,0,0.04938271604938272,59.1604938271605,0)" xlink:href="#ak"/><use transform="matrix(0.04938271604938272,0,0,0.04938271604938272,69.97530864197532,0)" xlink:href="#aS"/><use transform="matrix(0.04938271604938272,0,0,0.04938271604938272,76.8888888888889,0)" xlink:href="#aq"/><use transform="matrix(0.04938271604938272,0,0,0.04938271604938272,86.76543209876544,0)" xlink:href="#aT"/><use transform="matrix(0.04938271604938272,0,0,0.04938271604938272,96.64197530864199,0)" xlink:href="#aT"/><use transform="matrix(0.04740740740740742,0,0,0.04740740740740742,106.51851851851852,0)" xlink:href="#aG"/><use transform="matrix(0.04740740740740742,0,0,0.04740740740740742,112.16000000000001,0)" xlink:href="#av"/><use transform="matrix(0.04740740740740742,0,0,0.04740740740740742,121.64148148148149,0)" xlink:href="#aw"/><use transform="matrix(0.04740740740740742,0,0,0.04740740740740742,131.122962962963,0)" xlink:href="#ax"/><use transform="matrix(0.04740740740740742,0,0,0.04740740740740742,135.86370370370372,0)" xlink:href="#ay"/><use transform="matrix(0.04740740740740742,0,0,0.04740740740740742,145.34518518518522,0)" xlink:href="#aH"/><use transform="matrix(0.04740740740740742,0,0,0.04740740740740742,150.08592592592595,0)" xlink:href="#aI"/><use transform="matrix(0.04740740740740742,0,0,0.04740740740740742,164.26074074074077,0)" xlink:href="#ay"/><use transform="matrix(0.04740740740740742,0,0,0.04740740740740742,173.74222222222227,0)" xlink:href="#aE"/><use transform="matrix(0.04740740740740742,0,0,0.04740740740740742,182.2755555555556,0)" xlink:href="#aE"/><use transform="matrix(0.04740740740740742,0,0,0.04740740740740742,190.80888888888893,0)" xlink:href="#aw"/><use transform="matrix(0.04740740740740742,0,0,0.04740740740740742,200.29037037037043,0)" xlink:href="#aD"/><use transform="matrix(0.04740740740740742,0,0,0.04740740740740742,209.7718518518519,0)" xlink:href="#ay"/><use transform="matrix(0.04740740740740742,0,0,0.04740740740740742,219.25333333333342,0)" xlink:href="#aJ"/></g><g id="w"><use transform="matrix(0.04938271604938272,0,0,0.04938271604938272,0,0)" xlink:href="#am"/><use transform="matrix(0.04938271604938272,0,0,0.04938271604938272,10.814814814814815,0)" xlink:href="#aS"/><use transform="matrix(0.04938271604938272,0,0,0.04938271604938272,17.728395061728396,0)" xlink:href="#aj"/><use transform="matrix(0.04938271604938272,0,0,0.04938271604938272,28.543209876543205,0)" xlink:href="#ak"/><use transform="matrix(0.04938271604938272,0,0,0.04938271604938272,39.358024691358025,0)" xlink:href="#aS"/><use transform="matrix(0.04938271604938272,0,0,0.04938271604938272,46.27160493827161,0)" xlink:href="#aq"/><use transform="matrix(0.04938271604938272,0,0,0.04938271604938272,56.14814814814815,0)" xlink:href="#aT"/><use transform="matrix(0.04938271604938272,0,0,0.04938271604938272,66.0246913580247,0)" xlink:href="#aT"/></g><path fill="#333" d="M15-148v-39h180v39H15zm0 97v-39h180v39H15" id="aU"/><use transform="matrix(0.04938271604938272,0,0,0.04938271604938272,0,0)" xlink:href="#aU" id="x"/><path d="M143 4C61 4 22-44 18-125c-5-107 100-154 193-111 17 8 29 25 37 43l-32 9c-13-25-37-40-76-40-61 0-88 39-88 99 0 61 29 100 91 101 35 0 62-11 79-27v-45h-74v-28h105v86C228-13 192 4 143 4" id="aV"/><g id="y"><use transform="matrix(0.04740740740740742,0,0,0.04740740740740742,0,0)" xlink:href="#aV"/><use transform="matrix(0.04740740740740742,0,0,0.04740740740740742,13.274074074074077,0)" xlink:href="#ay"/><use transform="matrix(0.04740740740740742,0,0,0.04740740740740742,22.75555555555556,0)" xlink:href="#ax"/><use transform="matrix(0.04740740740740742,0,0,0.04740740740740742,27.496296296296304,0)" xlink:href="#aA"/><use transform="matrix(0.04740740740740742,0,0,0.04740740740740742,38.87407407407408,0)" xlink:href="#aB"/><use transform="matrix(0.04740740740740742,0,0,0.04740740740740742,44.515555555555565,0)" xlink:href="#aC"/><use transform="matrix(0.04740740740740742,0,0,0.04740740740740742,53.99703703703705,0)" xlink:href="#aD"/><use transform="matrix(0.04740740740740742,0,0,0.04740740740740742,63.47851851851852,0)" xlink:href="#aB"/><use transform="matrix(0.04740740740740742,0,0,0.04740740740740742,69.12,0)" xlink:href="#ay"/><use transform="matrix(0.04740740740740742,0,0,0.04740740740740742,78.60148148148149,0)" xlink:href="#aE"/><use transform="matrix(0.04740740740740742,0,0,0.04740740740740742,87.13481481481482,0)" xlink:href="#aE"/><use transform="matrix(0.04740740740740742,0,0,0.04740740740740742,95.66814814814815,0)" xlink:href="#aG"/><use transform="matrix(0.04740740740740742,0,0,0.04740740740740742,101.30962962962963,0)" xlink:href="#av"/><use transform="matrix(0.04740740740740742,0,0,0.04740740740740742,110.79111111111112,0)" xlink:href="#aw"/><use transform="matrix(0.04740740740740742,0,0,0.04740740740740742,120.27259259259257,0)" xlink:href="#ax"/><use transform="matrix(0.04740740740740742,0,0,0.04740740740740742,125.01333333333334,0)" xlink:href="#ay"/><use transform="matrix(0.04740740740740742,0,0,0.04740740740740742,134.49481481481482,0)" xlink:href="#aH"/><use transform="matrix(0.04740740740740742,0,0,0.04740740740740742,139.23555555555555,0)" xlink:href="#aI"/><use transform="matrix(0.04740740740740742,0,0,0.04740740740740742,153.41037037037037,0)" xlink:href="#ay"/><use transform="matrix(0.04740740740740742,0,0,0.04740740740740742,162.89185185185187,0)" xlink:href="#aE"/><use transform="matrix(0.04740740740740742,0,0,0.04740740740740742,171.4251851851852,0)" xlink:href="#aE"/><use transform="matrix(0.04740740740740742,0,0,0.04740740740740742,179.95851851851853,0)" xlink:href="#aw"/><use transform="matrix(0.04740740740740742,0,0,0.04740740740740742,189.44000000000003,0)" xlink:href="#aD"/><use transform="matrix(0.04740740740740742,0,0,0.04740740740740742,198.92148148148152,0)" xlink:href="#ay"/><use transform="matrix(0.04740740740740742,0,0,0.04740740740740742,208.40296296296302,0)" xlink:href="#aJ"/></g><g id="z"><use transform="matrix(0.04938271604938272,0,0,0.04938271604938272,0,0)" xlink:href="#ao"/><use transform="matrix(0.04938271604938272,0,0,0.04938271604938272,9.876543209876544,0)" xlink:href="#an"/><use transform="matrix(0.04938271604938272,0,0,0.04938271604938272,20.69135802469136,0)" xlink:href="#an"/><use transform="matrix(0.04938271604938272,0,0,0.04938271604938272,31.506172839506174,0)" xlink:href="#aR"/><use transform="matrix(0.04938271604938272,0,0,0.04938271604938272,43.35802469135803,0)" xlink:href="#aS"/><use transform="matrix(0.04938271604938272,0,0,0.04938271604938272,50.271604938271615,0)" xlink:href="#aj"/><use transform="matrix(0.04938271604938272,0,0,0.04938271604938272,61.08641975308644,0)" xlink:href="#ak"/><use transform="matrix(0.04938271604938272,0,0,0.04938271604938272,71.90123456790124,0)" xlink:href="#aS"/><use transform="matrix(0.04938271604938272,0,0,0.04938271604938272,78.81481481481482,0)" xlink:href="#aq"/><use transform="matrix(0.04938271604938272,0,0,0.04938271604938272,88.69135802469137,0)" xlink:href="#aT"/><use transform="matrix(0.04938271604938272,0,0,0.04938271604938272,98.56790123456791,0)" xlink:href="#aT"/><use transform="matrix(0.04740740740740742,0,0,0.04740740740740742,108.44444444444444,0)" xlink:href="#aG"/><use transform="matrix(0.04740740740740742,0,0,0.04740740740740742,114.08592592592593,0)" xlink:href="#av"/><use transform="matrix(0.04740740740740742,0,0,0.04740740740740742,123.56740740740742,0)" xlink:href="#aw"/><use transform="matrix(0.04740740740740742,0,0,0.04740740740740742,133.0488888888889,0)" xlink:href="#ax"/><use transform="matrix(0.04740740740740742,0,0,0.04740740740740742,137.78962962962964,0)" xlink:href="#ay"/><use transform="matrix(0.04740740740740742,0,0,0.04740740740740742,147.27111111111114,0)" xlink:href="#aH"/><use transform="matrix(0.04740740740740742,0,0,0.04740740740740742,152.01185185185187,0)" xlink:href="#aI"/><use transform="matrix(0.04740740740740742,0,0,0.04740740740740742,166.1866666666667,0)" xlink:href="#ay"/><use transform="matrix(0.04740740740740742,0,0,0.04740740740740742,175.6681481481482,0)" xlink:href="#aE"/><use transform="matrix(0.04740740740740742,0,0,0.04740740740740742,184.20148148148152,0)" xlink:href="#aE"/><use transform="matrix(0.04740740740740742,0,0,0.04740740740740742,192.73481481481485,0)" xlink:href="#aw"/><use transform="matrix(0.04740740740740742,0,0,0.04740740740740742,202.21629629629635,0)" xlink:href="#aD"/><use transform="matrix(0.04740740740740742,0,0,0.04740740740740742,211.69777777777782,0)" xlink:href="#ay"/><use transform="matrix(0.04740740740740742,0,0,0.04740740740740742,221.17925925925937,0)" xlink:href="#aJ"/></g><path fill="#333" d="M169-182c-1-43-94-46-97-3 18 66 151 10 154 114 3 95-165 93-204 36-6-8-10-19-12-30l50-8c3 46 112 56 116 5-17-69-150-10-154-114-4-87 153-88 188-35 5 8 8 18 10 28" id="aW"/><path fill="#333" d="M121-226c-27-7-43 5-38 36h38v33H83V0H34v-157H6v-33h28c-9-59 32-81 87-68v32" id="aX"/><g id="A"><use transform="matrix(0.04938271604938272,0,0,0.04938271604938272,0,0)" xlink:href="#ag"/><use transform="matrix(0.04938271604938272,0,0,0.04938271604938272,4.938271604938272,0)" xlink:href="#aT"/><use transform="matrix(0.04938271604938272,0,0,0.04938271604938272,14.814814814814817,0)" xlink:href="#aW"/><use transform="matrix(0.04938271604938272,0,0,0.04938271604938272,26.666666666666668,0)" xlink:href="#al"/><use transform="matrix(0.04938271604938272,0,0,0.04938271604938272,37.48148148148149,0)" xlink:href="#ah"/><use transform="matrix(0.04938271604938272,0,0,0.04938271604938272,47.35802469135803,0)" xlink:href="#ah"/><use transform="matrix(0.04938271604938272,0,0,0.04938271604938272,57.23456790123457,0)" xlink:href="#aq"/><use transform="matrix(0.04938271604938272,0,0,0.04938271604938272,67.11111111111111,0)" xlink:href="#aT"/><use transform="matrix(0.04938271604938272,0,0,0.04938271604938272,76.98765432098766,0)" xlink:href="#aT"/><use transform="matrix(0.04938271604938272,0,0,0.04938271604938272,86.8641975308642,0)" xlink:href="#aX"/><use transform="matrix(0.04938271604938272,0,0,0.04938271604938272,92.74074074074075,0)" xlink:href="#al"/><use transform="matrix(0.04938271604938272,0,0,0.04938271604938272,103.55555555555557,0)" xlink:href="#af"/></g><g id="B"><use transform="matrix(0.04740740740740742,0,0,0.04740740740740742,0,0)" xlink:href="#aw"/><use transform="matrix(0.04740740740740742,0,0,0.04740740740740742,9.481481481481485,0)" xlink:href="#av"/><use transform="matrix(0.04740740740740742,0,0,0.04740740740740742,18.96296296296297,0)" xlink:href="#av"/><use transform="matrix(0.04740740740740742,0,0,0.04740740740740742,28.44444444444445,0)" xlink:href="#aA"/><use transform="matrix(0.04740740740740742,0,0,0.04740740740740742,39.82222222222224,0)" xlink:href="#aB"/><use transform="matrix(0.04740740740740742,0,0,0.04740740740740742,45.46370370370372,0)" xlink:href="#aC"/><use transform="matrix(0.04740740740740742,0,0,0.04740740740740742,54.94518518518521,0)" xlink:href="#aD"/><use transform="matrix(0.04740740740740742,0,0,0.04740740740740742,64.42666666666669,0)" xlink:href="#aB"/><use transform="matrix(0.04740740740740742,0,0,0.04740740740740742,70.06814814814817,0)" xlink:href="#ay"/><use transform="matrix(0.04740740740740742,0,0,0.04740740740740742,79.54962962962965,0)" xlink:href="#aE"/><use transform="matrix(0.04740740740740742,0,0,0.04740740740740742,88.08296296296298,0)" xlink:href="#aE"/><use transform="matrix(0.04740740740740742,0,0,0.04740740740740742,96.61629629629631,0)" xlink:href="#aG"/><use transform="matrix(0.04740740740740742,0,0,0.04740740740740742,102.25777777777778,0)" xlink:href="#av"/><use transform="matrix(0.04740740740740742,0,0,0.04740740740740742,111.73925925925927,0)" xlink:href="#aw"/><use transform="matrix(0.04740740740740742,0,0,0.04740740740740742,121.22074074074075,0)" xlink:href="#ax"/><use transform="matrix(0.04740740740740742,0,0,0.04740740740740742,125.96148148148148,0)" xlink:href="#ay"/><use transform="matrix(0.04740740740740742,0,0,0.04740740740740742,135.44296296296298,0)" xlink:href="#aH"/><use transform="matrix(0.04740740740740742,0,0,0.04740740740740742,140.1837037037037,0)" xlink:href="#aI"/><use transform="matrix(0.04740740740740742,0,0,0.04740740740740742,154.35851851851854,0)" xlink:href="#ay"/><use transform="matrix(0.04740740740740742,0,0,0.04740740740740742,163.84000000000003,0)" xlink:href="#aE"/><use transform="matrix(0.04740740740740742,0,0,0.04740740740740742,172.37333333333336,0)" xlink:href="#aE"/><use transform="matrix(0.04740740740740742,0,0,0.04740740740740742,180.9066666666667,0)" xlink:href="#aw"/><use transform="matrix(0.04740740740740742,0,0,0.04740740740740742,190.3881481481482,0)" xlink:href="#aD"/><use transform="matrix(0.04740740740740742,0,0,0.04740740740740742,199.86962962962969,0)" xlink:href="#ay"/><use transform="matrix(0.04740740740740742,0,0,0.04740740740740742,209.35111111111115,0)" xlink:href="#aJ"/></g><path fill="#333" d="M24 0v-248h52v208h133V0H24" id="aY"/><g id="C"><use transform="matrix(0.04938271604938272,0,0,0.04938271604938272,0,0)" xlink:href="#ag"/><use transform="matrix(0.04938271604938272,0,0,0.04938271604938272,4.938271604938272,0)" xlink:href="#aT"/><use transform="matrix(0.04938271604938272,0,0,0.04938271604938272,14.814814814814817,0)" xlink:href="#aY"/><use transform="matrix(0.04938271604938272,0,0,0.04938271604938272,25.629629629629633,0)" xlink:href="#aj"/><use transform="matrix(0.04938271604938272,0,0,0.04938271604938272,36.44444444444445,0)" xlink:href="#ak"/><use transform="matrix(0.04938271604938272,0,0,0.04938271604938272,47.25925925925927,0)" xlink:href="#ak"/><use transform="matrix(0.04938271604938272,0,0,0.04938271604938272,58.074074074074076,0)" xlink:href="#aq"/><use transform="matrix(0.04938271604938272,0,0,0.04938271604938272,67.95061728395063,0)" xlink:href="#an"/></g><use transform="matrix(0.04938271604938272,0,0,0.04938271604938272,0,0)" xlink:href="#aU" id="D"/><g id="E"><use transform="matrix(0.04740740740740742,0,0,0.04740740740740742,0,0)" xlink:href="#aA"/><use transform="matrix(0.04740740740740742,0,0,0.04740740740740742,11.37777777777778,0)" xlink:href="#aC"/><use transform="matrix(0.04740740740740742,0,0,0.04740740740740742,20.859259259259264,0)" xlink:href="#aE"/><use transform="matrix(0.04740740740740742,0,0,0.04740740740740742,29.3925925925926,0)" xlink:href="#ax"/><use transform="matrix(0.04740740740740742,0,0,0.04740740740740742,34.13333333333334,0)" xlink:href="#aA"/><use transform="matrix(0.04740740740740742,0,0,0.04740740740740742,45.51111111111112,0)" xlink:href="#aB"/><use transform="matrix(0.04740740740740742,0,0,0.04740740740740742,51.152592592592605,0)" xlink:href="#aC"/><use transform="matrix(0.04740740740740742,0,0,0.04740740740740742,60.634074074074086,0)" xlink:href="#aD"/><use transform="matrix(0.04740740740740742,0,0,0.04740740740740742,70.11555555555557,0)" xlink:href="#aB"/><use transform="matrix(0.04740740740740742,0,0,0.04740740740740742,75.75703703703705,0)" xlink:href="#ay"/><use transform="matrix(0.04740740740740742,0,0,0.04740740740740742,85.23851851851853,0)" xlink:href="#aE"/><use transform="matrix(0.04740740740740742,0,0,0.04740740740740742,93.77185185185186,0)" xlink:href="#aE"/><use transform="matrix(0.04740740740740742,0,0,0.04740740740740742,102.3051851851852,0)" xlink:href="#aG"/><use transform="matrix(0.04740740740740742,0,0,0.04740740740740742,107.94666666666667,0)" xlink:href="#av"/><use transform="matrix(0.04740740740740742,0,0,0.04740740740740742,117.42814814814815,0)" xlink:href="#aw"/><use transform="matrix(0.04740740740740742,0,0,0.04740740740740742,126.90962962962963,0)" xlink:href="#ax"/><use transform="matrix(0.04740740740740742,0,0,0.04740740740740742,131.65037037037038,0)" xlink:href="#ay"/><use transform="matrix(0.04740740740740742,0,0,0.04740740740740742,141.13185185185188,0)" xlink:href="#aH"/><use transform="matrix(0.04740740740740742,0,0,0.04740740740740742,145.8725925925926,0)" xlink:href="#aI"/><use transform="matrix(0.04740740740740742,0,0,0.04740740740740742,160.04740740740743,0)" xlink:href="#ay"/><use transform="matrix(0.04740740740740742,0,0,0.04740740740740742,169.52888888888893,0)" xlink:href="#aE"/><use transform="matrix(0.04740740740740742,0,0,0.04740740740740742,178.06222222222226,0)" xlink:href="#aE"/><use transform="matrix(0.04740740740740742,0,0,0.04740740740740742,186.5955555555556,0)" xlink:href="#aw"/><use transform="matrix(0.04740740740740742,0,0,0.04740740740740742,196.0770370370371,0)" xlink:href="#aD"/><use transform="matrix(0.04740740740740742,0,0,0.04740740740740742,205.55851851851858,0)" xlink:href="#ay"/><use transform="matrix(0.04740740740740742,0,0,0.04740740740740742,215.0400000000001,0)" xlink:href="#aJ"/></g><g id="F"><use transform="matrix(0.04938271604938272,0,0,0.04938271604938272,0,0)" xlink:href="#ag"/><use transform="matrix(0.04938271604938272,0,0,0.04938271604938272,4.938271604938272,0)" xlink:href="#aT"/><use transform="matrix(0.04938271604938272,0,0,0.04938271604938272,14.814814814814817,0)" xlink:href="#aY"/><use transform="matrix(0.04938271604938272,0,0,0.04938271604938272,25.629629629629633,0)" xlink:href="#aj"/><use transform="matrix(0.04938271604938272,0,0,0.04938271604938272,36.44444444444445,0)" xlink:href="#ak"/><use transform="matrix(0.04938271604938272,0,0,0.04938271604938272,47.25925925925927,0)" xlink:href="#ak"/><use transform="matrix(0.04938271604938272,0,0,0.04938271604938272,58.074074074074076,0)" xlink:href="#aq"/><use transform="matrix(0.04938271604938272,0,0,0.04938271604938272,67.95061728395063,0)" xlink:href="#an"/></g><path fill="#333" d="M123 10C108 53 80 86 19 72V37c35 8 53-11 59-39L3-190h52l48 148c12-52 28-100 44-148h51" id="aZ"/><path fill="#333" d="M67-93c0 74 22 123 53 168H70C40 30 18-18 18-93s22-123 52-168h50c-32 44-53 94-53 168" id="ba"/><path fill="#333" d="M102-93c0 74-22 123-52 168H0C30 29 54-18 53-93c0-74-22-123-53-168h50c30 45 52 94 52 168" id="bb"/><g id="G"><use transform="matrix(0.04938271604938272,0,0,0.04938271604938272,0,0)" xlink:href="#an"/><use transform="matrix(0.04938271604938272,0,0,0.04938271604938272,10.814814814814815,0)" xlink:href="#ag"/><use transform="matrix(0.04938271604938272,0,0,0.04938271604938272,15.753086419753087,0)" xlink:href="#aT"/><use transform="matrix(0.04938271604938272,0,0,0.04938271604938272,25.629629629629633,0)" xlink:href="#am"/><use transform="matrix(0.04938271604938272,0,0,0.04938271604938272,36.44444444444445,0)" xlink:href="#af"/><use transform="matrix(0.04938271604938272,0,0,0.04938271604938272,41.38271604938272,0)" xlink:href="#ao"/><use transform="matrix(0.04938271604938272,0,0,0.04938271604938272,51.25925925925927,0)" xlink:href="#aZ"/><use transform="matrix(0.04938271604938272,0,0,0.04938271604938272,61.13580246913581,0)" xlink:href="#aR"/><use transform="matrix(0.04938271604938272,0,0,0.04938271604938272,72.98765432098766,0)" xlink:href="#aS"/><use transform="matrix(0.04938271604938272,0,0,0.04938271604938272,79.90123456790124,0)" xlink:href="#aj"/><use transform="matrix(0.04938271604938272,0,0,0.04938271604938272,90.71604938271605,0)" xlink:href="#ak"/><use transform="matrix(0.04938271604938272,0,0,0.04938271604938272,101.53086419753085,0)" xlink:href="#aS"/><use transform="matrix(0.04938271604938272,0,0,0.04938271604938272,108.44444444444446,0)" xlink:href="#aq"/><use transform="matrix(0.04938271604938272,0,0,0.04938271604938272,118.320987654321,0)" xlink:href="#aT"/><use transform="matrix(0.04938271604938272,0,0,0.04938271604938272,128.19753086419752,0)" xlink:href="#aT"/><use transform="matrix(0.04938271604938272,0,0,0.04938271604938272,138.07407407407408,0)" xlink:href="#aW"/><use transform="matrix(0.04938271604938272,0,0,0.04938271604938272,149.92592592592592,0)" xlink:href="#ap"/><use transform="matrix(0.04938271604938272,0,0,0.04938271604938272,155.80246913580245,0)" xlink:href="#ao"/><use transform="matrix(0.04938271604938272,0,0,0.04938271604938272,165.67901234567898,0)" xlink:href="#ap"/><use transform="matrix(0.04938271604938272,0,0,0.04938271604938272,171.55555555555551,0)" xlink:href="#al"/><use transform="matrix(0.04938271604938272,0,0,0.04938271604938272,182.37037037037032,0)" xlink:href="#aT"/><use transform="matrix(0.04938271604938272,0,0,0.04938271604938272,192.24691358024688,0)" xlink:href="#ba"/><use transform="matrix(0.04938271604938272,0,0,0.04938271604938272,198.1234567901234,0)" xlink:href="#ag"/><use transform="matrix(0.04938271604938272,0,0,0.04938271604938272,203.0617283950617,0)" xlink:href="#aT"/><use transform="matrix(0.04938271604938272,0,0,0.04938271604938272,212.93827160493825,0)" xlink:href="#aY"/><use transform="matrix(0.04938271604938272,0,0,0.04938271604938272,223.753086419753,0)" xlink:href="#aj"/><use transform="matrix(0.04938271604938272,0,0,0.04938271604938272,234.56790123456784,0)" xlink:href="#ak"/><use transform="matrix(0.04938271604938272,0,0,0.04938271604938272,245.38271604938265,0)" xlink:href="#ak"/><use transform="matrix(0.04938271604938272,0,0,0.04938271604938272,256.19753086419746,0)" xlink:href="#aq"/><use transform="matrix(0.04938271604938272,0,0,0.04938271604938272,266.074074074074,0)" xlink:href="#an"/><use transform="matrix(0.04938271604938272,0,0,0.04938271604938272,276.88888888888886,0)" xlink:href="#bb"/></g></defs></g></svg>